<svg version="1.1" xmlns="http://www.w3.org/2000/svg" viewBox="0 0 882.1111111111113 1054.4444444444446" width="882.1111111111113" height="1054.4444444444446">
  <!-- svg-source:excalidraw -->
  
  <defs>
    <style>
      @font-face {
        font-family: "Virgil";
        src: url("https://excalidraw.com/Virgil.woff2");
      }
      @font-face {
        font-family: "Cascadia";
        src: url("https://excalidraw.com/Cascadia.woff2");
      }
    </style>
  </defs>
  <rect x="0" y="0" width="882.1111111111113" height="1054.4444444444446" fill="#ffffff"></rect><g stroke-linecap="round" transform="translate(309.3968253968255 480.53172907753594) rotate(0 130.5 52.5)"><path d="M0 0 C71.71 0, 143.42 0, 261 0 M0 0 C65.31 0, 130.62 0, 261 0 M261 0 C261 41.6, 261 83.21, 261 105 M261 0 C261 35.49, 261 70.98, 261 105 M261 105 C191.56 105, 122.12 105, 0 105 M261 105 C159.42 105, 57.84 105, 0 105 M0 105 C0 76.21, 0 47.42, 0 0 M0 105 C0 79.44, 0 53.89, 0 0" stroke="#000000" stroke-width="1" fill="none"></path></g><g transform="translate(398.8968253968255 510.53172907753594) rotate(0 41 22.5)"><text x="41" y="32" font-family="Virgil, Segoe UI Emoji" font-size="36px" fill="#000000" text-anchor="middle" style="white-space: pre;" direction="ltr">Arzt</text></g><g stroke-linecap="round" transform="translate(611.1111111111113 482.7777777777778) rotate(0 130.5 52.5)"><path d="M0 0 C93.94 0, 187.88 0, 261 0 M0 0 C57.79 0, 115.59 0, 261 0 M261 0 C261 31.63, 261 63.26, 261 105 M261 0 C261 36.55, 261 73.11, 261 105 M261 105 C183.22 105, 105.44 105, 0 105 M261 105 C158.1 105, 55.19 105, 0 105 M0 105 C0 74.59, 0 44.17, 0 0 M0 105 C0 82.26, 0 59.51, 0 0" stroke="#000000" stroke-width="1" fill="none"></path></g><g transform="translate(682.1111111111113 512.7777777777778) rotate(0 59.5 22.5)"><text x="59.5" y="32" font-family="Virgil, Segoe UI Emoji" font-size="36px" fill="#000000" text-anchor="middle" style="white-space: pre;" direction="ltr">Zimmer</text></g><g stroke-linecap="round" transform="translate(302.77777777777766 939.4444444444446) rotate(0 130.5 52.5)"><path d="M0 0 C93.26 0, 186.52 0, 261 0 M0 0 C57.02 0, 114.03 0, 261 0 M261 0 C261 25, 261 50, 261 105 M261 0 C261 34.57, 261 69.14, 261 105 M261 105 C172.1 105, 83.2 105, 0 105 M261 105 C181.79 105, 102.58 105, 0 105 M0 105 C0 63.97, 0 22.94, 0 0 M0 105 C0 69.83, 0 34.67, 0 0" stroke="#000000" stroke-width="1" fill="none"></path></g><g transform="translate(365.77777777777766 969.4444444444446) rotate(0 67.5 22.5)"><text x="67.5" y="32" font-family="Virgil, Segoe UI Emoji" font-size="36px" fill="#000000" text-anchor="middle" style="white-space: pre;" direction="ltr">Patient</text></g><g stroke-linecap="round" transform="translate(295.5555555555555 10) rotate(0 130.5 52.5)"><path d="M0 0 C97.01 0, 194.01 0, 261 0 M0 0 C67.55 0, 135.1 0, 261 0 M261 0 C261 39.07, 261 78.14, 261 105 M261 0 C261 21.6, 261 43.2, 261 105 M261 105 C161.67 105, 62.34 105, 0 105 M261 105 C192.87 105, 124.75 105, 0 105 M0 105 C0 83.97, 0 62.94, 0 0 M0 105 C0 65.72, 0 26.44, 0 0" stroke="#000000" stroke-width="1" fill="none"></path></g><g transform="translate(347.5555555555555 40) rotate(0 78.5 22.5)"><text x="78.5" y="32" font-family="Virgil, Segoe UI Emoji" font-size="36px" fill="#000000" text-anchor="middle" style="white-space: pre;" direction="ltr">Abteilung</text></g><g stroke-linecap="round" transform="translate(10 480.55555555555577) rotate(0 130.5 52.5)"><path d="M0 0 C103.14 0, 206.29 0, 261 0 M0 0 C55.84 0, 111.69 0, 261 0 M261 0 C261 38.63, 261 77.25, 261 105 M261 0 C261 40.98, 261 81.96, 261 105 M261 105 C183.03 105, 105.05 105, 0 105 M261 105 C201.77 105, 142.54 105, 0 105 M0 105 C0 73.5, 0 42, 0 0 M0 105 C0 65.6, 0 26.2, 0 0" stroke="#000000" stroke-width="1" fill="none"></path></g><g transform="translate(38 510.55555555555577) rotate(0 102.5 22.5)"><text x="102.5" y="32" font-family="Virgil, Segoe UI Emoji" font-size="36px" fill="#000000" text-anchor="middle" style="white-space: pre;" direction="ltr">Pflegekraft</text></g><g stroke-linecap="round" transform="translate(92.72222222222211 239.35187445746533) rotate(0 47.77777777777777 40.55555555555557)"><path d="M48 0 C63.15 13.06, 78.29 26.12, 95.56 41 M48 0 C66.39 15.85, 84.77 31.71, 95.56 41 M95.56 41 C85.44 49.53, 75.33 58.06, 48 81.11 M95.56 41 C81.32 53, 67.09 65.01, 48 81.11 M48 81.11 C35.56 70.71, 23.11 60.32, 0 41 M48 81.11 C36.67 71.65, 25.34 62.18, 0 41 M0 41 C14.96 28.22, 29.92 15.44, 48 0 M0 41 C11.97 30.77, 23.94 20.55, 48 0" stroke="#000000" stroke-width="2" fill="none"></path></g><g transform="translate(108.99999999999994 254.90743001302087) rotate(0 31.5 25)"><text x="31.5" y="18" font-family="Virgil, Segoe UI Emoji" font-size="20px" fill="#000000" text-anchor="middle" style="white-space: pre;" direction="ltr">gehört</text><text x="31.5" y="43" font-family="Virgil, Segoe UI Emoji" font-size="20px" fill="#000000" text-anchor="middle" style="white-space: pre;" direction="ltr">zu</text></g><g stroke-linecap="round" transform="translate(387.16666666666646 239.53708224826403) rotate(0 47.77777777777777 40.55555555555557)"><path d="M48 0 C60.22 10.53, 72.43 21.07, 95.56 41 M48 0 C66.63 16.06, 85.26 32.12, 95.56 41 M95.56 41 C80.03 54.09, 64.51 67.19, 48 81.11 M95.56 41 C80.76 53.48, 65.96 65.96, 48 81.11 M48 81.11 C33.66 69.13, 19.32 57.15, 0 41 M48 81.11 C31.74 67.53, 15.49 53.94, 0 41 M0 41 C9.89 32.55, 19.79 24.1, 48 0 M0 41 C10.61 31.94, 21.21 22.88, 48 0" stroke="#000000" stroke-width="2" fill="none"></path></g><g transform="translate(403.44444444444406 255.09263780381957) rotate(0 31.5 25)"><text x="31.5" y="18" font-family="Virgil, Segoe UI Emoji" font-size="20px" fill="#000000" text-anchor="middle" style="white-space: pre;" direction="ltr">gehört</text><text x="31.5" y="43" font-family="Virgil, Segoe UI Emoji" font-size="20px" fill="#000000" text-anchor="middle" style="white-space: pre;" direction="ltr">zu</text></g><g stroke-linecap="round" transform="translate(684.9444444444446 236.20374891493066) rotate(0 47.77777777777777 40.55555555555557)"><path d="M48 0 C62.8 12.76, 77.59 25.51, 95.56 41 M48 0 C62.21 12.25, 76.41 24.49, 95.56 41 M95.56 41 C79.45 54.58, 63.34 68.17, 48 81.11 M95.56 41 C85.75 49.27, 75.95 57.54, 48 81.11 M48 81.11 C37.39 72.25, 26.79 63.38, 0 41 M48 81.11 C36.96 71.89, 25.93 62.67, 0 41 M0 41 C13.41 29.55, 26.81 18.1, 48 0 M0 41 C18.16 25.49, 36.32 9.97, 48 0" stroke="#000000" stroke-width="2" fill="none"></path></g><g transform="translate(701.2222222222224 251.7593044704862) rotate(0 31.5 25)"><text x="31.5" y="18" font-family="Virgil, Segoe UI Emoji" font-size="20px" fill="#000000" text-anchor="middle" style="white-space: pre;" direction="ltr">gehört</text><text x="31.5" y="43" font-family="Virgil, Segoe UI Emoji" font-size="20px" fill="#000000" text-anchor="middle" style="white-space: pre;" direction="ltr">zu</text></g><g stroke-linecap="round"><g transform="translate(160.5 254.53708224826403) rotate(0 79.44444444444449 -69.16666666666669)"><path d="M0 0 C26.48 -23.06, 132.41 -115.28, 158.89 -138.33 M0 0 C26.48 -23.06, 132.41 -115.28, 158.89 -138.33" stroke="#000000" stroke-width="2" fill="none"></path></g></g><g stroke-linecap="round"><g transform="translate(433.8333333333333 240.09263780381957) rotate(0 -1.1368683772161603e-13 -59.166666666666686)"><path d="M0 0 C0 -16.11, 0 -76.94, 0 -96.67 C0 -116.39, 0 -114.72, 0 -118.33 M0 0 C0 -16.11, 0 -76.94, 0 -96.67 C0 -116.39, 0 -114.72, 0 -118.33" stroke="#000000" stroke-width="2" fill="none"></path></g></g><g stroke-linecap="round"><g transform="translate(554.9444444444446 117.31486002604163) rotate(0 77.77777777777777 67.50000000000011)"><path d="M0 0 C25.93 22.5, 129.63 112.5, 155.56 135 M0 0 C25.93 22.5, 129.63 112.5, 155.56 135" stroke="#000000" stroke-width="2" fill="none"></path></g></g><g stroke-linecap="round"><g transform="translate(431.61111111111114 323.42597113715294) rotate(0 1.1111111111110858 76.66666666666669)"><path d="M0 0 C0.37 25.56, 1.85 127.78, 2.22 153.33 M0 0 C0.37 25.56, 1.85 127.78, 2.22 153.33" stroke="#000000" stroke-width="2" fill="none"></path></g></g><g stroke-linecap="round"><g transform="translate(734.9444444444446 316.7593044704862) rotate(0 1.6666666666666288 85.00000000000006)"><path d="M0 0 C0.56 28.33, 2.78 141.67, 3.33 170 M0 0 C0.56 28.33, 2.78 141.67, 3.33 170" stroke="#000000" stroke-width="2" fill="none"></path></g></g><g stroke-linecap="round"><g transform="translate(137.16666666666669 320.09263780381957) rotate(0 -0.5555555555555713 81.11111111111114)"><path d="M0 0 C-0.19 27.04, -0.93 135.19, -1.11 162.22 M0 0 C-0.19 27.04, -0.93 135.19, -1.11 162.22" stroke="#000000" stroke-width="2" fill="none"></path></g></g><g stroke-linecap="round" transform="translate(87.16666666666669 715.4629855685765) rotate(0 47.77777777777777 40.55555555555557)"><path d="M48 0 C62.89 12.84, 77.78 25.68, 95.56 41 M48 0 C62.97 12.9, 77.93 25.81, 95.56 41 M95.56 41 C83.4 51.26, 71.24 61.51, 48 81.11 M95.56 41 C80.4 53.79, 65.24 66.57, 48 81.11 M48 81.11 C30.31 66.33, 12.62 51.55, 0 41 M48 81.11 C31.6 67.4, 15.2 53.7, 0 41 M0 41 C11.48 31.19, 22.96 21.39, 48 0 M0 41 C11.2 31.43, 22.41 21.86, 48 0" stroke="#000000" stroke-width="2" fill="none"></path></g><g transform="translate(96.44444444444451 743.5185411241321) rotate(0 38.5 12.5)"><text x="38.5" y="18" font-family="Virgil, Segoe UI Emoji" font-size="20px" fill="#000000" text-anchor="middle" style="white-space: pre;" direction="ltr">betreut</text></g><g stroke-linecap="round" transform="translate(387.1666666666667 717.6852077907988) rotate(0 47.77777777777777 40.55555555555557)"><path d="M48 0 C61.64 11.76, 75.27 23.51, 95.56 41 M48 0 C66.2 15.69, 84.39 31.38, 95.56 41 M95.56 41 C82.69 51.86, 69.82 62.71, 48 81.11 M95.56 41 C85.52 49.46, 75.49 57.92, 48 81.11 M48 81.11 C37.5 72.34, 27.01 63.57, 0 41 M48 81.11 C33.9 69.33, 19.8 57.54, 0 41 M0 41 C15.61 27.67, 31.21 14.34, 48 0 M0 41 C14.06 28.99, 28.13 16.97, 48 0" stroke="#000000" stroke-width="2" fill="none"></path></g><g transform="translate(396.4444444444445 745.7407633463544) rotate(0 38.5 12.5)"><text x="38.5" y="18" font-family="Virgil, Segoe UI Emoji" font-size="20px" fill="#000000" text-anchor="middle" style="white-space: pre;" direction="ltr">betreut</text></g><g stroke-linecap="round" transform="translate(692.7222222222224 728.7963189019099) rotate(0 47.77777777777777 40.55555555555557)"><path d="M48 0 C65.71 15.27, 83.41 30.53, 95.56 41 M48 0 C60.43 10.71, 72.86 21.43, 95.56 41 M95.56 41 C84.08 50.68, 72.61 60.36, 48 81.11 M95.56 41 C85.31 49.64, 75.06 58.29, 48 81.11 M48 81.11 C31.49 67.31, 14.98 53.51, 0 41 M48 81.11 C31.71 67.5, 15.42 53.89, 0 41 M0 41 C15.05 28.14, 30.11 15.28, 48 0 M0 41 C12.06 30.7, 24.12 20.4, 48 0" stroke="#000000" stroke-width="2" fill="none"></path></g><g transform="translate(710.0000000000002 756.8518744574654) rotate(0 30.5 12.5)"><text x="30.5" y="18" font-family="Virgil, Segoe UI Emoji" font-size="20px" fill="#000000" text-anchor="middle" style="white-space: pre;" direction="ltr">belegt</text></g><g stroke-linecap="round"><g transform="translate(132.32539682539692 715.7804458860368) rotate(0 0 -60.83333333333337)"><path d="M0 0 C0 -20.28, 0 -101.39, 0 -121.67 M0 0 C0 -20.28, 0 -101.39, 0 -121.67" stroke="#000000" stroke-width="2" fill="none"></path></g></g><g stroke-linecap="round"><g transform="translate(133.99206349206355 794.1137792193701) rotate(0 86.66666666666669 70.83333333333326)"><path d="M0 0 C28.89 23.61, 144.44 118.06, 173.33 141.67 M0 0 C28.89 23.61, 144.44 118.06, 173.33 141.67" stroke="#000000" stroke-width="2" fill="none"></path></g></g><g stroke-linecap="round"><g transform="translate(438.99206349206355 942.4471125527034) rotate(0 -1.6666666666666288 -74.16666666666663)"><path d="M0 0 C-0.56 -24.72, -2.78 -123.61, -3.33 -148.33 M0 0 C-0.56 -24.72, -2.78 -123.61, -3.33 -148.33" stroke="#000000" stroke-width="2" fill="none"></path></g></g><g stroke-linecap="round"><g transform="translate(432.3253968253968 720.7804458860368) rotate(0 0.8333333333333712 -65.83333333333337)"><path d="M0 0 C0.28 -21.94, 1.39 -109.72, 1.67 -131.67 M0 0 C0.28 -21.94, 1.39 -109.72, 1.67 -131.67" stroke="#000000" stroke-width="2" fill="none"></path></g></g><g stroke-linecap="round"><g transform="translate(540.6587301587304 940.7804458860367) rotate(0 92.49999999999989 -74.16666666666663)"><path d="M0 0 C30.83 -24.72, 154.17 -123.61, 185 -148.33 M0 0 C30.83 -24.72, 154.17 -123.61, 185 -148.33" stroke="#000000" stroke-width="2" fill="none"></path></g></g><g stroke-linecap="round"><g transform="translate(740.6587301587301 730.7804458860368) rotate(0 -2.5 -70.83333333333337)"><path d="M0 0 C-0.83 -23.61, -4.17 -118.06, -5 -141.67 M0 0 C-0.83 -23.61, -4.17 -118.06, -5 -141.67" stroke="#000000" stroke-width="2" fill="none"></path></g></g><g transform="translate(157.34920634920633 428.4471125527034) rotate(0 9.5 22.5)"><text x="9.5" y="32" font-family="Virgil, Segoe UI Emoji" font-size="36px" fill="#000000" text-anchor="middle" style="white-space: pre;" direction="ltr">n</text></g><g transform="translate(453.0634920634921 432.73282683841774) rotate(0 9.5 22.5)"><text x="9.5" y="32" font-family="Virgil, Segoe UI Emoji" font-size="36px" fill="#000000" text-anchor="middle" style="white-space: pre;" direction="ltr">n</text></g><g transform="translate(750.2063492063492 435.5899696955606) rotate(0 9.5 22.5)"><text x="9.5" y="32" font-family="Virgil, Segoe UI Emoji" font-size="36px" fill="#000000" text-anchor="middle" style="white-space: pre;" direction="ltr">n</text></g><g transform="translate(605.9206349206349 892.7328268384175) rotate(0 9.5 22.5)"><text x="9.5" y="32" font-family="Virgil, Segoe UI Emoji" font-size="36px" fill="#000000" text-anchor="middle" style="white-space: pre;" direction="ltr">n</text></g><g transform="translate(317.99206349206355 124.30425540984629) rotate(0 6 22.5)"><text x="6" y="32" font-family="Virgil, Segoe UI Emoji" font-size="36px" fill="#000000" text-anchor="middle" style="white-space: pre;" direction="ltr">1</text></g><g transform="translate(450.84920634920644 122.87568398127485) rotate(0 6 22.5)"><text x="6" y="32" font-family="Virgil, Segoe UI Emoji" font-size="36px" fill="#000000" text-anchor="middle" style="white-space: pre;" direction="ltr">1</text></g><g transform="translate(603.7063492063494 120.01854112413184) rotate(0 6 22.5)"><text x="6" y="32" font-family="Virgil, Segoe UI Emoji" font-size="36px" fill="#000000" text-anchor="middle" style="white-space: pre;" direction="ltr">1</text></g><g transform="translate(752.277777777778 597.1613982669891) rotate(0 6 22.5)"><text x="6" y="32" font-family="Virgil, Segoe UI Emoji" font-size="36px" fill="#000000" text-anchor="middle" style="white-space: pre;" direction="ltr">1</text></g><g transform="translate(447.3492063492063 892.8756839812748) rotate(0 9.5 22.5)"><text x="9.5" y="32" font-family="Virgil, Segoe UI Emoji" font-size="36px" fill="#000000" text-anchor="middle" style="white-space: pre;" direction="ltr">n</text></g><g transform="translate(444.34920634920655 598.5899696955604) rotate(0 12.5 22.5)"><text x="12.5" y="32" font-family="Virgil, Segoe UI Emoji" font-size="36px" fill="#000000" text-anchor="middle" style="white-space: pre;" direction="ltr">m</text></g><g transform="translate(291.63492063492066 887.161398266989) rotate(0 9.5 22.5)"><text x="9.5" y="32" font-family="Virgil, Segoe UI Emoji" font-size="36px" fill="#000000" text-anchor="middle" style="white-space: pre;" direction="ltr">n</text></g><g transform="translate(144.34920634920644 591.4471125527033) rotate(0 12.5 22.5)"><text x="12.5" y="32" font-family="Virgil, Segoe UI Emoji" font-size="36px" fill="#000000" text-anchor="middle" style="white-space: pre;" direction="ltr">m</text></g></svg>