<svg version="1.1" xmlns="http://www.w3.org/2000/svg" viewBox="0 0 2182.507936507936 927.4735223679314" width="2182.507936507936" height="927.4735223679314">
  <!-- svg-source:excalidraw -->
  
  <defs>
    <style>
      @font-face {
        font-family: "Virgil";
        src: url("https://excalidraw.com/Virgil.woff2");
      }
      @font-face {
        font-family: "Cascadia";
        src: url("https://excalidraw.com/Cascadia.woff2");
      }
    </style>
  </defs>
  <rect x="0" y="0" width="2182.507936507936" height="927.4735223679314" fill="#ffffff"></rect><g stroke-linecap="round" transform="translate(665.2698412698418 454.51318795340376) rotate(0 130.5 52.5)"><path d="M0 0 C71.71 0, 143.42 0, 261 0 M0 0 C65.31 0, 130.62 0, 261 0 M261 0 C261 41.6, 261 83.21, 261 105 M261 0 C261 35.49, 261 70.98, 261 105 M261 105 C191.56 105, 122.12 105, 0 105 M261 105 C159.42 105, 57.84 105, 0 105 M0 105 C0 76.21, 0 47.42, 0 0 M0 105 C0 79.44, 0 53.89, 0 0" stroke="#000000" stroke-width="1" fill="none"></path></g><g transform="translate(754.7698412698418 484.51318795340376) rotate(0 41 22.5)"><text x="41" y="32" font-family="Virgil, Segoe UI Emoji" font-size="36px" fill="#000000" text-anchor="middle" style="white-space: pre;" direction="ltr">arzt</text></g><g stroke-linecap="round" transform="translate(678.4126984126991 812.4735223679314) rotate(0 130.5 52.5)"><path d="M0 0 C93.94 0, 187.88 0, 261 0 M0 0 C57.79 0, 115.59 0, 261 0 M261 0 C261 31.63, 261 63.26, 261 105 M261 0 C261 36.55, 261 73.11, 261 105 M261 105 C183.22 105, 105.44 105, 0 105 M261 105 C158.1 105, 55.19 105, 0 105 M0 105 C0 74.59, 0 44.17, 0 0 M0 105 C0 82.26, 0 59.51, 0 0" stroke="#000000" stroke-width="1" fill="none"></path></g><g transform="translate(753.4126984126991 842.4735223679314) rotate(0 55.5 22.5)"><text x="55.5" y="32" font-family="Virgil, Segoe UI Emoji" font-size="36px" fill="#000000" text-anchor="middle" style="white-space: pre;" direction="ltr">zimmer</text></g><g stroke-linecap="round" transform="translate(1410.0793650793648 456.2830461774553) rotate(0 130.5 52.5)"><path d="M0 0 C93.26 0, 186.52 0, 261 0 M0 0 C57.02 0, 114.03 0, 261 0 M261 0 C261 25, 261 50, 261 105 M261 0 C261 34.57, 261 69.14, 261 105 M261 105 C172.1 105, 83.2 105, 0 105 M261 105 C181.79 105, 102.58 105, 0 105 M0 105 C0 63.97, 0 22.94, 0 0 M0 105 C0 69.83, 0 34.67, 0 0" stroke="#000000" stroke-width="1" fill="none"></path></g><g stroke-linecap="round" transform="translate(1911.507936507936 454.85447474888383) rotate(0 130.5 52.5)"><path d="M0 0 C66.35 0, 132.69 0, 261 0 M0 0 C79.51 0, 159.03 0, 261 0 M261 0 C261 21.54, 261 43.09, 261 105 M261 0 C261 35.82, 261 71.65, 261 105 M261 105 C190.78 105, 120.56 105, 0 105 M261 105 C177.91 105, 94.83 105, 0 105 M0 105 C0 82.3, 0 59.59, 0 0 M0 105 C0 71.09, 0 37.19, 0 0" stroke="#000000" stroke-width="1" fill="none"></path></g><g transform="translate(1444.5793650793648 486.2830461774553) rotate(0 96 22.5)"><text x="96" y="32" font-family="Virgil, Segoe UI Emoji" font-size="36px" fill="#000000" text-anchor="middle" style="white-space: pre;" direction="ltr">aufenthalt</text></g><g transform="translate(1977.507936507936 484.85447474888383) rotate(0 64.5 22.5)"><text x="64.5" y="32" font-family="Virgil, Segoe UI Emoji" font-size="36px" fill="#000000" text-anchor="middle" style="white-space: pre;" direction="ltr">patient</text></g><g stroke-linecap="round" transform="translate(10 452.55288744729637) rotate(0 130.5 52.5)"><path d="M0 0 C97.01 0, 194.01 0, 261 0 M0 0 C67.55 0, 135.1 0, 261 0 M261 0 C261 39.07, 261 78.14, 261 105 M261 0 C261 21.6, 261 43.2, 261 105 M261 105 C161.67 105, 62.34 105, 0 105 M261 105 C192.87 105, 124.75 105, 0 105 M0 105 C0 83.97, 0 62.94, 0 0 M0 105 C0 65.72, 0 26.44, 0 0" stroke="#000000" stroke-width="1" fill="none"></path></g><g transform="translate(62 482.55288744729637) rotate(0 78.5 22.5)"><text x="78.5" y="32" font-family="Virgil, Segoe UI Emoji" font-size="36px" fill="#000000" text-anchor="middle" style="white-space: pre;" direction="ltr">abteilung</text></g><g stroke-linecap="round" transform="translate(665.8730158730158 90.25130014570937) rotate(0 130.5 52.5)"><path d="M0 0 C103.14 0, 206.29 0, 261 0 M0 0 C55.84 0, 111.69 0, 261 0 M261 0 C261 38.63, 261 77.25, 261 105 M261 0 C261 40.98, 261 81.96, 261 105 M261 105 C183.03 105, 105.05 105, 0 105 M261 105 C201.77 105, 142.54 105, 0 105 M0 105 C0 73.5, 0 42, 0 0 M0 105 C0 65.6, 0 26.2, 0 0" stroke="#000000" stroke-width="1" fill="none"></path></g><g transform="translate(696.8730158730158 120.25130014570937) rotate(0 99.5 22.5)"><text x="99.5" y="32" font-family="Virgil, Segoe UI Emoji" font-size="36px" fill="#000000" text-anchor="middle" style="white-space: pre;" direction="ltr">pflegekraft</text></g><g stroke-linecap="round" transform="translate(1105.8968253968255 259.44444444444457) rotate(0 47.777777777777715 40.55555555555554)"><path d="M48 0 C62.89 12.84, 77.78 25.68, 95.56 41 M48 0 C62.97 12.9, 77.93 25.81, 95.56 41 M95.56 41 C83.4 51.26, 71.24 61.51, 48 81.11 M95.56 41 C80.4 53.79, 65.24 66.57, 48 81.11 M48 81.11 C30.31 66.33, 12.62 51.55, 0 41 M48 81.11 C31.6 67.4, 15.2 53.7, 0 41 M0 41 C11.48 31.19, 22.96 21.39, 48 0 M0 41 C11.2 31.43, 22.41 21.86, 48 0" stroke="#000000" stroke-width="2" fill="none"></path></g><g stroke-linecap="round" transform="translate(438.7539682539683 255.15873015873012) rotate(0 47.77777777777777 40.55555555555554)"><path d="M48 0 C59.73 10.11, 71.45 20.22, 95.56 41 M48 0 C61.63 11.75, 75.26 23.51, 95.56 41 M95.56 41 C83.56 51.12, 71.56 61.24, 48 81.11 M95.56 41 C83.16 51.45, 70.77 61.91, 48 81.11 M48 81.11 C29.74 65.85, 11.47 50.59, 0 41 M48 81.11 C29.88 65.97, 11.76 50.83, 0 41 M0 41 C12.47 30.35, 24.94 19.7, 48 0 M0 41 C11.48 31.19, 22.96 21.38, 48 0" stroke="#000000" stroke-width="2" fill="none"></path></g><g stroke-linecap="round" transform="translate(1743.0396825396824 466.58730158730145) rotate(0 47.777777777777715 40.55555555555554)"><path d="M48 0 C62.67 12.65, 77.34 25.3, 95.56 41 M48 0 C59.57 9.97, 71.14 19.95, 95.56 41 M95.56 41 C77.15 56.52, 58.75 72.04, 48 81.11 M95.56 41 C76.86 56.76, 58.17 72.53, 48 81.11 M48 81.11 C31.37 67.21, 14.74 53.32, 0 41 M48 81.11 C33.73 69.18, 19.45 57.26, 0 41 M0 41 C15.88 27.44, 31.76 13.87, 48 0 M0 41 C18.94 24.82, 37.88 8.65, 48 0" stroke="#000000" stroke-width="2" fill="none"></path></g><g transform="translate(1115.1746031746034 287.5000000000002) rotate(0 38.5 12.5)"><text x="38.5" y="18" font-family="Virgil, Segoe UI Emoji" font-size="20px" fill="#000000" text-anchor="middle" style="white-space: pre;" direction="ltr">betreut</text></g><g transform="translate(448.03174603174614 283.2142857142858) rotate(0 38.5 12.5)"><text x="38.5" y="18" font-family="Virgil, Segoe UI Emoji" font-size="20px" fill="#000000" text-anchor="middle" style="white-space: pre;" direction="ltr">betreut</text></g><g transform="translate(1772.3174603174598 494.642857142857) rotate(0 18.5 12.5)"><text x="18.5" y="18" font-family="Virgil, Segoe UI Emoji" font-size="20px" fill="#000000" text-anchor="middle" style="white-space: pre;" direction="ltr">hat</text></g><g stroke-linecap="round" transform="translate(1110.1825396825398 464.52380952380963) rotate(0 47.77777777777783 40.55555555555554)"><path d="M48 0 C61.64 11.76, 75.27 23.51, 95.56 41 M48 0 C66.2 15.69, 84.39 31.38, 95.56 41 M95.56 41 C82.69 51.86, 69.82 62.71, 48 81.11 M95.56 41 C85.52 49.46, 75.49 57.92, 48 81.11 M48 81.11 C37.5 72.34, 27.01 63.57, 0 41 M48 81.11 C33.9 69.33, 19.8 57.54, 0 41 M0 41 C15.61 27.67, 31.21 14.34, 48 0 M0 41 C14.06 28.99, 28.13 16.97, 48 0" stroke="#000000" stroke-width="2" fill="none"></path></g><g stroke-linecap="round" transform="translate(443.03968253968276 460.2380952380952) rotate(0 47.77777777777777 40.55555555555554)"><path d="M48 0 C61.82 11.91, 75.64 23.83, 95.56 41 M48 0 C64.84 14.52, 81.68 29.04, 95.56 41 M95.56 41 C83.58 51.1, 71.6 61.2, 48 81.11 M95.56 41 C80.5 53.7, 65.45 66.39, 48 81.11 M48 81.11 C30.1 66.15, 12.2 51.2, 0 41 M48 81.11 C36.83 71.78, 25.66 62.44, 0 41 M0 41 C11.15 31.48, 22.3 21.95, 48 0 M0 41 C13.19 29.73, 26.39 18.46, 48 0" stroke="#000000" stroke-width="2" fill="none"></path></g><g transform="translate(1119.4603174603176 492.5793650793652) rotate(0 38.5 12.5)"><text x="38.5" y="18" font-family="Virgil, Segoe UI Emoji" font-size="20px" fill="#000000" text-anchor="middle" style="white-space: pre;" direction="ltr">betreut</text></g><g transform="translate(452.3174603174606 488.2936507936507) rotate(0 38.5 12.5)"><text x="38.5" y="18" font-family="Virgil, Segoe UI Emoji" font-size="20px" fill="#000000" text-anchor="middle" style="white-space: pre;" direction="ltr">betreut</text></g><g stroke-linecap="round" transform="translate(1108.5952380952385 662.7777777777777) rotate(0 48 40.55555555555557)"><path d="M49 0 C66.5 15.27, 84 30.53, 96 41 M49 0 C61.28 10.71, 73.57 21.43, 96 41 M96 41 C84.66 50.68, 73.32 60.36, 49 81.11 M96 41 C85.87 49.64, 75.74 58.29, 49 81.11 M49 81.11 C32.14 67.31, 15.29 53.51, 0 41 M49 81.11 C32.37 67.5, 15.74 53.89, 0 41 M0 41 C15.37 28.14, 30.73 15.28, 49 0 M0 41 C12.31 30.7, 24.62 20.4, 49 0" stroke="#000000" stroke-width="2" fill="none"></path></g><g stroke-linecap="round" transform="translate(441.4523809523813 658.4920634920633) rotate(0 47.77777777777777 40.55555555555557)"><path d="M48 0 C63.39 13.27, 78.77 26.53, 95.56 41 M48 0 C61.47 11.61, 74.94 23.22, 95.56 41 M95.56 41 C83.39 51.26, 71.22 61.52, 48 81.11 M95.56 41 C84.54 50.29, 73.52 59.59, 48 81.11 M48 81.11 C28.93 65.17, 9.85 49.23, 0 41 M48 81.11 C33.92 69.34, 19.83 57.57, 0 41 M0 41 C13.43 29.52, 26.87 18.05, 48 0 M0 41 C17.18 26.32, 34.36 11.65, 48 0" stroke="#000000" stroke-width="2" fill="none"></path></g><g transform="translate(1131.8730158730164 693.3333333333333) rotate(0 24.5 10)"><text x="24.5" y="14" font-family="Virgil, Segoe UI Emoji" font-size="16px" fill="#000000" text-anchor="middle" style="white-space: pre;" direction="ltr">belegt</text></g><g transform="translate(458.73015873015913 686.5476190476188) rotate(0 30.5 12.5)"><text x="30.5" y="18" font-family="Virgil, Segoe UI Emoji" font-size="20px" fill="#000000" text-anchor="middle" style="white-space: pre;" direction="ltr">belegt</text></g><g stroke-linecap="round" transform="translate(1501.2936507936515 371.42857142857144) rotate(0 55 30)"><path d="M110 30 C110 31.42, 109.81 32.86, 109.44 34.27 C109.07 35.68, 108.51 37.09, 107.77 38.45 C107.04 39.82, 106.11 41.17, 105.03 42.46 C103.95 43.76, 102.68 45.02, 101.27 46.22 C99.86 47.42, 98.27 48.57, 96.57 49.65 C94.86 50.72, 92.99 51.74, 91.02 52.67 C89.05 53.6, 86.93 54.47, 84.74 55.24 C82.54 56.01, 80.22 56.7, 77.85 57.29 C75.47 57.88, 73 58.38, 70.5 58.78 C67.99 59.19, 65.41 59.49, 62.83 59.69 C60.24 59.9, 57.61 60, 55 60 C52.39 60, 49.76 59.9, 47.17 59.69 C44.59 59.49, 42.01 59.19, 39.5 58.78 C37 58.38, 34.53 57.88, 32.15 57.29 C29.78 56.7, 27.46 56.01, 25.26 55.24 C23.07 54.47, 20.95 53.6, 18.98 52.67 C17.01 51.74, 15.14 50.72, 13.43 49.65 C11.73 48.57, 10.14 47.42, 8.73 46.22 C7.32 45.02, 6.05 43.76, 4.97 42.46 C3.89 41.17, 2.96 39.82, 2.23 38.45 C1.49 37.09, 0.93 35.68, 0.56 34.27 C0.19 32.86, 0 31.42, 0 30 C0 28.58, 0.19 27.14, 0.56 25.73 C0.93 24.32, 1.49 22.91, 2.23 21.55 C2.96 20.18, 3.89 18.83, 4.97 17.54 C6.05 16.24, 7.32 14.98, 8.73 13.78 C10.14 12.58, 11.73 11.43, 13.43 10.35 C15.14 9.28, 17.01 8.26, 18.98 7.33 C20.95 6.4, 23.07 5.53, 25.26 4.76 C27.46 3.99, 29.78 3.3, 32.15 2.71 C34.53 2.12, 37 1.62, 39.5 1.22 C42.01 0.81, 44.59 0.51, 47.17 0.31 C49.76 0.1, 52.39 0, 55 0 C57.61 0, 60.24 0.1, 62.83 0.31 C65.41 0.51, 67.99 0.81, 70.5 1.22 C73 1.62, 75.47 2.12, 77.85 2.71 C80.22 3.3, 82.54 3.99, 84.74 4.76 C86.93 5.53, 89.05 6.4, 91.02 7.33 C92.99 8.26, 94.86 9.28, 96.57 10.35 C98.27 11.43, 99.86 12.58, 101.27 13.78 C102.68 14.98, 103.95 16.24, 105.03 17.54 C106.11 18.83, 107.04 20.18, 107.77 21.55 C108.51 22.91, 109.07 24.32, 109.44 25.73 C109.81 27.14, 109.91 29.29, 110 30 C110.09 30.71, 110.09 29.29, 110 30" stroke="#000000" stroke-width="2" fill="none"></path></g><g stroke-linecap="round" transform="translate(144.15079365079458 385.7142857142859) rotate(0 61.49999999999997 30)"><path d="M123 30 C123 31.31, 122.82 32.62, 122.47 33.92 C122.12 35.21, 121.6 36.5, 120.9 37.76 C120.21 39.03, 119.34 40.27, 118.32 41.48 C117.29 42.69, 116.1 43.87, 114.76 45 C113.42 46.13, 111.92 47.23, 110.29 48.26 C108.66 49.3, 106.88 50.29, 104.99 51.21 C103.09 52.14, 101.06 53.01, 98.94 53.8 C96.82 54.6, 94.57 55.33, 92.25 55.98 C89.93 56.63, 87.51 57.22, 85.04 57.72 C82.56 58.22, 80 58.64, 77.42 58.98 C74.83 59.32, 72.18 59.57, 69.53 59.74 C66.87 59.91, 64.18 60, 61.5 60 C58.82 60, 56.13 59.91, 53.47 59.74 C50.82 59.57, 48.17 59.32, 45.58 58.98 C43 58.64, 40.44 58.22, 37.96 57.72 C35.49 57.22, 33.07 56.63, 30.75 55.98 C28.43 55.33, 26.18 54.6, 24.06 53.8 C21.94 53.01, 19.91 52.14, 18.01 51.21 C16.12 50.29, 14.34 49.3, 12.71 48.26 C11.08 47.23, 9.58 46.13, 8.24 45 C6.9 43.87, 5.71 42.69, 4.68 41.48 C3.66 40.27, 2.79 39.03, 2.1 37.76 C1.4 36.5, 0.88 35.21, 0.53 33.92 C0.18 32.62, 0 31.31, 0 30 C0 28.69, 0.18 27.38, 0.53 26.08 C0.88 24.79, 1.4 23.5, 2.1 22.24 C2.79 20.97, 3.66 19.73, 4.68 18.52 C5.71 17.31, 6.9 16.13, 8.24 15 C9.58 13.87, 11.08 12.77, 12.71 11.74 C14.34 10.7, 16.12 9.71, 18.01 8.79 C19.91 7.86, 21.94 6.99, 24.06 6.2 C26.18 5.4, 28.43 4.67, 30.75 4.02 C33.07 3.37, 35.49 2.78, 37.96 2.28 C40.44 1.78, 43 1.36, 45.58 1.02 C48.17 0.68, 50.82 0.43, 53.47 0.26 C56.13 0.09, 58.82 0, 61.5 0 C64.18 0, 66.87 0.09, 69.53 0.26 C72.18 0.43, 74.83 0.68, 77.42 1.02 C80 1.36, 82.56 1.78, 85.04 2.28 C87.51 2.78, 89.93 3.37, 92.25 4.02 C94.57 4.67, 96.82 5.4, 98.94 6.2 C101.06 6.99, 103.09 7.86, 104.99 8.79 C106.88 9.71, 108.66 10.7, 110.29 11.74 C111.92 12.77, 113.42 13.87, 114.76 15 C116.1 16.13, 117.29 17.31, 118.32 18.52 C119.34 19.73, 120.21 20.97, 120.9 22.24 C121.6 23.5, 122.12 24.79, 122.47 26.08 C122.82 27.38, 122.91 29.35, 123 30 C123.09 30.65, 123.09 29.35, 123 30" stroke="#000000" stroke-width="2" fill="none"></path></g><g stroke-linecap="round" transform="translate(725.5793650793659 10.000000000000227) rotate(0 61.5 30)"><path d="M123 30 C123 31.31, 122.82 32.62, 122.47 33.92 C122.12 35.21, 121.6 36.5, 120.9 37.76 C120.21 39.03, 119.34 40.27, 118.32 41.48 C117.29 42.69, 116.1 43.87, 114.76 45 C113.42 46.13, 111.92 47.23, 110.29 48.26 C108.66 49.3, 106.88 50.29, 104.99 51.21 C103.09 52.14, 101.06 53.01, 98.94 53.8 C96.82 54.6, 94.57 55.33, 92.25 55.98 C89.93 56.63, 87.51 57.22, 85.04 57.72 C82.56 58.22, 80 58.64, 77.42 58.98 C74.83 59.32, 72.18 59.57, 69.53 59.74 C66.87 59.91, 64.18 60, 61.5 60 C58.82 60, 56.13 59.91, 53.47 59.74 C50.82 59.57, 48.17 59.32, 45.58 58.98 C43 58.64, 40.44 58.22, 37.96 57.72 C35.49 57.22, 33.07 56.63, 30.75 55.98 C28.43 55.33, 26.18 54.6, 24.06 53.8 C21.94 53.01, 19.91 52.14, 18.01 51.21 C16.12 50.29, 14.34 49.3, 12.71 48.26 C11.08 47.23, 9.58 46.13, 8.24 45 C6.9 43.87, 5.71 42.69, 4.68 41.48 C3.66 40.27, 2.79 39.03, 2.1 37.76 C1.4 36.5, 0.88 35.21, 0.53 33.92 C0.18 32.62, 0 31.31, 0 30 C0 28.69, 0.18 27.38, 0.53 26.08 C0.88 24.79, 1.4 23.5, 2.1 22.24 C2.79 20.97, 3.66 19.73, 4.68 18.52 C5.71 17.31, 6.9 16.13, 8.24 15 C9.58 13.87, 11.08 12.77, 12.71 11.74 C14.34 10.7, 16.12 9.71, 18.01 8.79 C19.91 7.86, 21.94 6.99, 24.06 6.2 C26.18 5.4, 28.43 4.67, 30.75 4.02 C33.07 3.37, 35.49 2.78, 37.96 2.28 C40.44 1.78, 43 1.36, 45.58 1.02 C48.17 0.68, 50.82 0.43, 53.47 0.26 C56.13 0.09, 58.82 0, 61.5 0 C64.18 0, 66.87 0.09, 69.53 0.26 C72.18 0.43, 74.83 0.68, 77.42 1.02 C80 1.36, 82.56 1.78, 85.04 2.28 C87.51 2.78, 89.93 3.37, 92.25 4.02 C94.57 4.67, 96.82 5.4, 98.94 6.2 C101.06 6.99, 103.09 7.86, 104.99 8.79 C106.88 9.71, 108.66 10.7, 110.29 11.74 C111.92 12.77, 113.42 13.87, 114.76 15 C116.1 16.13, 117.29 17.31, 118.32 18.52 C119.34 19.73, 120.21 20.97, 120.9 22.24 C121.6 23.5, 122.12 24.79, 122.47 26.08 C122.82 27.38, 122.91 29.35, 123 30 C123.09 30.65, 123.09 29.35, 123 30" stroke="#000000" stroke-width="2" fill="none"></path></g><g stroke-linecap="round" transform="translate(1902.7222222222226 568.5714285714287) rotate(0 61.5 30)"><path d="M123 30 C123 31.31, 122.82 32.62, 122.47 33.92 C122.12 35.21, 121.6 36.5, 120.9 37.76 C120.21 39.03, 119.34 40.27, 118.32 41.48 C117.29 42.69, 116.1 43.87, 114.76 45 C113.42 46.13, 111.92 47.23, 110.29 48.26 C108.66 49.3, 106.88 50.29, 104.99 51.21 C103.09 52.14, 101.06 53.01, 98.94 53.8 C96.82 54.6, 94.57 55.33, 92.25 55.98 C89.93 56.63, 87.51 57.22, 85.04 57.72 C82.56 58.22, 80 58.64, 77.42 58.98 C74.83 59.32, 72.18 59.57, 69.53 59.74 C66.87 59.91, 64.18 60, 61.5 60 C58.82 60, 56.13 59.91, 53.47 59.74 C50.82 59.57, 48.17 59.32, 45.58 58.98 C43 58.64, 40.44 58.22, 37.96 57.72 C35.49 57.22, 33.07 56.63, 30.75 55.98 C28.43 55.33, 26.18 54.6, 24.06 53.8 C21.94 53.01, 19.91 52.14, 18.01 51.21 C16.12 50.29, 14.34 49.3, 12.71 48.26 C11.08 47.23, 9.58 46.13, 8.24 45 C6.9 43.87, 5.71 42.69, 4.68 41.48 C3.66 40.27, 2.79 39.03, 2.1 37.76 C1.4 36.5, 0.88 35.21, 0.53 33.92 C0.18 32.62, 0 31.31, 0 30 C0 28.69, 0.18 27.38, 0.53 26.08 C0.88 24.79, 1.4 23.5, 2.1 22.24 C2.79 20.97, 3.66 19.73, 4.68 18.52 C5.71 17.31, 6.9 16.13, 8.24 15 C9.58 13.87, 11.08 12.77, 12.71 11.74 C14.34 10.7, 16.12 9.71, 18.01 8.79 C19.91 7.86, 21.94 6.99, 24.06 6.2 C26.18 5.4, 28.43 4.67, 30.75 4.02 C33.07 3.37, 35.49 2.78, 37.96 2.28 C40.44 1.78, 43 1.36, 45.58 1.02 C48.17 0.68, 50.82 0.43, 53.47 0.26 C56.13 0.09, 58.82 0, 61.5 0 C64.18 0, 66.87 0.09, 69.53 0.26 C72.18 0.43, 74.83 0.68, 77.42 1.02 C80 1.36, 82.56 1.78, 85.04 2.28 C87.51 2.78, 89.93 3.37, 92.25 4.02 C94.57 4.67, 96.82 5.4, 98.94 6.2 C101.06 6.99, 103.09 7.86, 104.99 8.79 C106.88 9.71, 108.66 10.7, 110.29 11.74 C111.92 12.77, 113.42 13.87, 114.76 15 C116.1 16.13, 117.29 17.31, 118.32 18.52 C119.34 19.73, 120.21 20.97, 120.9 22.24 C121.6 23.5, 122.12 24.79, 122.47 26.08 C122.82 27.38, 122.91 29.35, 123 30 C123.09 30.65, 123.09 29.35, 123 30" stroke="#000000" stroke-width="2" fill="none"></path></g><g stroke-linecap="round" transform="translate(739.8650793650801 355.7142857142858) rotate(0 61.5 30)"><path d="M123 30 C123 31.31, 122.82 32.62, 122.47 33.92 C122.12 35.21, 121.6 36.5, 120.9 37.76 C120.21 39.03, 119.34 40.27, 118.32 41.48 C117.29 42.69, 116.1 43.87, 114.76 45 C113.42 46.13, 111.92 47.23, 110.29 48.26 C108.66 49.3, 106.88 50.29, 104.99 51.21 C103.09 52.14, 101.06 53.01, 98.94 53.8 C96.82 54.6, 94.57 55.33, 92.25 55.98 C89.93 56.63, 87.51 57.22, 85.04 57.72 C82.56 58.22, 80 58.64, 77.42 58.98 C74.83 59.32, 72.18 59.57, 69.53 59.74 C66.87 59.91, 64.18 60, 61.5 60 C58.82 60, 56.13 59.91, 53.47 59.74 C50.82 59.57, 48.17 59.32, 45.58 58.98 C43 58.64, 40.44 58.22, 37.96 57.72 C35.49 57.22, 33.07 56.63, 30.75 55.98 C28.43 55.33, 26.18 54.6, 24.06 53.8 C21.94 53.01, 19.91 52.14, 18.01 51.21 C16.12 50.29, 14.34 49.3, 12.71 48.26 C11.08 47.23, 9.58 46.13, 8.24 45 C6.9 43.87, 5.71 42.69, 4.68 41.48 C3.66 40.27, 2.79 39.03, 2.1 37.76 C1.4 36.5, 0.88 35.21, 0.53 33.92 C0.18 32.62, 0 31.31, 0 30 C0 28.69, 0.18 27.38, 0.53 26.08 C0.88 24.79, 1.4 23.5, 2.1 22.24 C2.79 20.97, 3.66 19.73, 4.68 18.52 C5.71 17.31, 6.9 16.13, 8.24 15 C9.58 13.87, 11.08 12.77, 12.71 11.74 C14.34 10.7, 16.12 9.71, 18.01 8.79 C19.91 7.86, 21.94 6.99, 24.06 6.2 C26.18 5.4, 28.43 4.67, 30.75 4.02 C33.07 3.37, 35.49 2.78, 37.96 2.28 C40.44 1.78, 43 1.36, 45.58 1.02 C48.17 0.68, 50.82 0.43, 53.47 0.26 C56.13 0.09, 58.82 0, 61.5 0 C64.18 0, 66.87 0.09, 69.53 0.26 C72.18 0.43, 74.83 0.68, 77.42 1.02 C80 1.36, 82.56 1.78, 85.04 2.28 C87.51 2.78, 89.93 3.37, 92.25 4.02 C94.57 4.67, 96.82 5.4, 98.94 6.2 C101.06 6.99, 103.09 7.86, 104.99 8.79 C106.88 9.71, 108.66 10.7, 110.29 11.74 C111.92 12.77, 113.42 13.87, 114.76 15 C116.1 16.13, 117.29 17.31, 118.32 18.52 C119.34 19.73, 120.21 20.97, 120.9 22.24 C121.6 23.5, 122.12 24.79, 122.47 26.08 C122.82 27.38, 122.91 29.35, 123 30 C123.09 30.65, 123.09 29.35, 123 30" stroke="#000000" stroke-width="2" fill="none"></path></g><g stroke-linecap="round" transform="translate(785.5793650793659 734.2857142857142) rotate(0 61.5 30)"><path d="M123 30 C123 31.31, 122.82 32.62, 122.47 33.92 C122.12 35.21, 121.6 36.5, 120.9 37.76 C120.21 39.03, 119.34 40.27, 118.32 41.48 C117.29 42.69, 116.1 43.87, 114.76 45 C113.42 46.13, 111.92 47.23, 110.29 48.26 C108.66 49.3, 106.88 50.29, 104.99 51.21 C103.09 52.14, 101.06 53.01, 98.94 53.8 C96.82 54.6, 94.57 55.33, 92.25 55.98 C89.93 56.63, 87.51 57.22, 85.04 57.72 C82.56 58.22, 80 58.64, 77.42 58.98 C74.83 59.32, 72.18 59.57, 69.53 59.74 C66.87 59.91, 64.18 60, 61.5 60 C58.82 60, 56.13 59.91, 53.47 59.74 C50.82 59.57, 48.17 59.32, 45.58 58.98 C43 58.64, 40.44 58.22, 37.96 57.72 C35.49 57.22, 33.07 56.63, 30.75 55.98 C28.43 55.33, 26.18 54.6, 24.06 53.8 C21.94 53.01, 19.91 52.14, 18.01 51.21 C16.12 50.29, 14.34 49.3, 12.71 48.26 C11.08 47.23, 9.58 46.13, 8.24 45 C6.9 43.87, 5.71 42.69, 4.68 41.48 C3.66 40.27, 2.79 39.03, 2.1 37.76 C1.4 36.5, 0.88 35.21, 0.53 33.92 C0.18 32.62, 0 31.31, 0 30 C0 28.69, 0.18 27.38, 0.53 26.08 C0.88 24.79, 1.4 23.5, 2.1 22.24 C2.79 20.97, 3.66 19.73, 4.68 18.52 C5.71 17.31, 6.9 16.13, 8.24 15 C9.58 13.87, 11.08 12.77, 12.71 11.74 C14.34 10.7, 16.12 9.71, 18.01 8.79 C19.91 7.86, 21.94 6.99, 24.06 6.2 C26.18 5.4, 28.43 4.67, 30.75 4.02 C33.07 3.37, 35.49 2.78, 37.96 2.28 C40.44 1.78, 43 1.36, 45.58 1.02 C48.17 0.68, 50.82 0.43, 53.47 0.26 C56.13 0.09, 58.82 0, 61.5 0 C64.18 0, 66.87 0.09, 69.53 0.26 C72.18 0.43, 74.83 0.68, 77.42 1.02 C80 1.36, 82.56 1.78, 85.04 2.28 C87.51 2.78, 89.93 3.37, 92.25 4.02 C94.57 4.67, 96.82 5.4, 98.94 6.2 C101.06 6.99, 103.09 7.86, 104.99 8.79 C106.88 9.71, 108.66 10.7, 110.29 11.74 C111.92 12.77, 113.42 13.87, 114.76 15 C116.1 16.13, 117.29 17.31, 118.32 18.52 C119.34 19.73, 120.21 20.97, 120.9 22.24 C121.6 23.5, 122.12 24.79, 122.47 26.08 C122.82 27.38, 122.91 29.35, 123 30 C123.09 30.65, 123.09 29.35, 123 30" stroke="#000000" stroke-width="2" fill="none"></path></g><g stroke-linecap="round" transform="translate(864.1507936507943 10) rotate(0 61.5 30)"><path d="M123 30 C123 31.31, 122.82 32.62, 122.47 33.92 C122.12 35.21, 121.6 36.5, 120.9 37.76 C120.21 39.03, 119.34 40.27, 118.32 41.48 C117.29 42.69, 116.1 43.87, 114.76 45 C113.42 46.13, 111.92 47.23, 110.29 48.26 C108.66 49.3, 106.88 50.29, 104.99 51.21 C103.09 52.14, 101.06 53.01, 98.94 53.8 C96.82 54.6, 94.57 55.33, 92.25 55.98 C89.93 56.63, 87.51 57.22, 85.04 57.72 C82.56 58.22, 80 58.64, 77.42 58.98 C74.83 59.32, 72.18 59.57, 69.53 59.74 C66.87 59.91, 64.18 60, 61.5 60 C58.82 60, 56.13 59.91, 53.47 59.74 C50.82 59.57, 48.17 59.32, 45.58 58.98 C43 58.64, 40.44 58.22, 37.96 57.72 C35.49 57.22, 33.07 56.63, 30.75 55.98 C28.43 55.33, 26.18 54.6, 24.06 53.8 C21.94 53.01, 19.91 52.14, 18.01 51.21 C16.12 50.29, 14.34 49.3, 12.71 48.26 C11.08 47.23, 9.58 46.13, 8.24 45 C6.9 43.87, 5.71 42.69, 4.68 41.48 C3.66 40.27, 2.79 39.03, 2.1 37.76 C1.4 36.5, 0.88 35.21, 0.53 33.92 C0.18 32.62, 0 31.31, 0 30 C0 28.69, 0.18 27.38, 0.53 26.08 C0.88 24.79, 1.4 23.5, 2.1 22.24 C2.79 20.97, 3.66 19.73, 4.68 18.52 C5.71 17.31, 6.9 16.13, 8.24 15 C9.58 13.87, 11.08 12.77, 12.71 11.74 C14.34 10.7, 16.12 9.71, 18.01 8.79 C19.91 7.86, 21.94 6.99, 24.06 6.2 C26.18 5.4, 28.43 4.67, 30.75 4.02 C33.07 3.37, 35.49 2.78, 37.96 2.28 C40.44 1.78, 43 1.36, 45.58 1.02 C48.17 0.68, 50.82 0.43, 53.47 0.26 C56.13 0.09, 58.82 0, 61.5 0 C64.18 0, 66.87 0.09, 69.53 0.26 C72.18 0.43, 74.83 0.68, 77.42 1.02 C80 1.36, 82.56 1.78, 85.04 2.28 C87.51 2.78, 89.93 3.37, 92.25 4.02 C94.57 4.67, 96.82 5.4, 98.94 6.2 C101.06 6.99, 103.09 7.86, 104.99 8.79 C106.88 9.71, 108.66 10.7, 110.29 11.74 C111.92 12.77, 113.42 13.87, 114.76 15 C116.1 16.13, 117.29 17.31, 118.32 18.52 C119.34 19.73, 120.21 20.97, 120.9 22.24 C121.6 23.5, 122.12 24.79, 122.47 26.08 C122.82 27.38, 122.91 29.35, 123 30 C123.09 30.65, 123.09 29.35, 123 30" stroke="#000000" stroke-width="2" fill="none"></path></g><g stroke-linecap="round" transform="translate(2029.86507936508 567.142857142857) rotate(0 61.5 30)"><path d="M123 30 C123 31.31, 122.82 32.62, 122.47 33.92 C122.12 35.21, 121.6 36.5, 120.9 37.76 C120.21 39.03, 119.34 40.27, 118.32 41.48 C117.29 42.69, 116.1 43.87, 114.76 45 C113.42 46.13, 111.92 47.23, 110.29 48.26 C108.66 49.3, 106.88 50.29, 104.99 51.21 C103.09 52.14, 101.06 53.01, 98.94 53.8 C96.82 54.6, 94.57 55.33, 92.25 55.98 C89.93 56.63, 87.51 57.22, 85.04 57.72 C82.56 58.22, 80 58.64, 77.42 58.98 C74.83 59.32, 72.18 59.57, 69.53 59.74 C66.87 59.91, 64.18 60, 61.5 60 C58.82 60, 56.13 59.91, 53.47 59.74 C50.82 59.57, 48.17 59.32, 45.58 58.98 C43 58.64, 40.44 58.22, 37.96 57.72 C35.49 57.22, 33.07 56.63, 30.75 55.98 C28.43 55.33, 26.18 54.6, 24.06 53.8 C21.94 53.01, 19.91 52.14, 18.01 51.21 C16.12 50.29, 14.34 49.3, 12.71 48.26 C11.08 47.23, 9.58 46.13, 8.24 45 C6.9 43.87, 5.71 42.69, 4.68 41.48 C3.66 40.27, 2.79 39.03, 2.1 37.76 C1.4 36.5, 0.88 35.21, 0.53 33.92 C0.18 32.62, 0 31.31, 0 30 C0 28.69, 0.18 27.38, 0.53 26.08 C0.88 24.79, 1.4 23.5, 2.1 22.24 C2.79 20.97, 3.66 19.73, 4.68 18.52 C5.71 17.31, 6.9 16.13, 8.24 15 C9.58 13.87, 11.08 12.77, 12.71 11.74 C14.34 10.7, 16.12 9.71, 18.01 8.79 C19.91 7.86, 21.94 6.99, 24.06 6.2 C26.18 5.4, 28.43 4.67, 30.75 4.02 C33.07 3.37, 35.49 2.78, 37.96 2.28 C40.44 1.78, 43 1.36, 45.58 1.02 C48.17 0.68, 50.82 0.43, 53.47 0.26 C56.13 0.09, 58.82 0, 61.5 0 C64.18 0, 66.87 0.09, 69.53 0.26 C72.18 0.43, 74.83 0.68, 77.42 1.02 C80 1.36, 82.56 1.78, 85.04 2.28 C87.51 2.78, 89.93 3.37, 92.25 4.02 C94.57 4.67, 96.82 5.4, 98.94 6.2 C101.06 6.99, 103.09 7.86, 104.99 8.79 C106.88 9.71, 108.66 10.7, 110.29 11.74 C111.92 12.77, 113.42 13.87, 114.76 15 C116.1 16.13, 117.29 17.31, 118.32 18.52 C119.34 19.73, 120.21 20.97, 120.9 22.24 C121.6 23.5, 122.12 24.79, 122.47 26.08 C122.82 27.38, 122.91 29.35, 123 30 C123.09 30.65, 123.09 29.35, 123 30" stroke="#000000" stroke-width="2" fill="none"></path></g><g stroke-linecap="round" transform="translate(878.4365079365085 355.71428571428555) rotate(0 61.5 30)"><path d="M123 30 C123 31.31, 122.82 32.62, 122.47 33.92 C122.12 35.21, 121.6 36.5, 120.9 37.76 C120.21 39.03, 119.34 40.27, 118.32 41.48 C117.29 42.69, 116.1 43.87, 114.76 45 C113.42 46.13, 111.92 47.23, 110.29 48.26 C108.66 49.3, 106.88 50.29, 104.99 51.21 C103.09 52.14, 101.06 53.01, 98.94 53.8 C96.82 54.6, 94.57 55.33, 92.25 55.98 C89.93 56.63, 87.51 57.22, 85.04 57.72 C82.56 58.22, 80 58.64, 77.42 58.98 C74.83 59.32, 72.18 59.57, 69.53 59.74 C66.87 59.91, 64.18 60, 61.5 60 C58.82 60, 56.13 59.91, 53.47 59.74 C50.82 59.57, 48.17 59.32, 45.58 58.98 C43 58.64, 40.44 58.22, 37.96 57.72 C35.49 57.22, 33.07 56.63, 30.75 55.98 C28.43 55.33, 26.18 54.6, 24.06 53.8 C21.94 53.01, 19.91 52.14, 18.01 51.21 C16.12 50.29, 14.34 49.3, 12.71 48.26 C11.08 47.23, 9.58 46.13, 8.24 45 C6.9 43.87, 5.71 42.69, 4.68 41.48 C3.66 40.27, 2.79 39.03, 2.1 37.76 C1.4 36.5, 0.88 35.21, 0.53 33.92 C0.18 32.62, 0 31.31, 0 30 C0 28.69, 0.18 27.38, 0.53 26.08 C0.88 24.79, 1.4 23.5, 2.1 22.24 C2.79 20.97, 3.66 19.73, 4.68 18.52 C5.71 17.31, 6.9 16.13, 8.24 15 C9.58 13.87, 11.08 12.77, 12.71 11.74 C14.34 10.7, 16.12 9.71, 18.01 8.79 C19.91 7.86, 21.94 6.99, 24.06 6.2 C26.18 5.4, 28.43 4.67, 30.75 4.02 C33.07 3.37, 35.49 2.78, 37.96 2.28 C40.44 1.78, 43 1.36, 45.58 1.02 C48.17 0.68, 50.82 0.43, 53.47 0.26 C56.13 0.09, 58.82 0, 61.5 0 C64.18 0, 66.87 0.09, 69.53 0.26 C72.18 0.43, 74.83 0.68, 77.42 1.02 C80 1.36, 82.56 1.78, 85.04 2.28 C87.51 2.78, 89.93 3.37, 92.25 4.02 C94.57 4.67, 96.82 5.4, 98.94 6.2 C101.06 6.99, 103.09 7.86, 104.99 8.79 C106.88 9.71, 108.66 10.7, 110.29 11.74 C111.92 12.77, 113.42 13.87, 114.76 15 C116.1 16.13, 117.29 17.31, 118.32 18.52 C119.34 19.73, 120.21 20.97, 120.9 22.24 C121.6 23.5, 122.12 24.79, 122.47 26.08 C122.82 27.38, 122.91 29.35, 123 30 C123.09 30.65, 123.09 29.35, 123 30" stroke="#000000" stroke-width="2" fill="none"></path></g><g stroke-linecap="round" transform="translate(1619.86507936508 372.8571428571428) rotate(0 64.5 32.5)"><path d="M129 32.5 C129 33.91, 128.81 35.34, 128.45 36.74 C128.08 38.14, 127.53 39.55, 126.8 40.91 C126.08 42.28, 125.16 43.63, 124.09 44.94 C123.02 46.24, 121.76 47.53, 120.36 48.75 C118.96 49.97, 117.38 51.16, 115.67 52.28 C113.96 53.41, 112.09 54.48, 110.11 55.48 C108.12 56.48, 105.99 57.42, 103.77 58.28 C101.54 59.14, 99.18 59.94, 96.75 60.65 C94.32 61.35, 91.78 61.98, 89.18 62.53 C86.59 63.07, 83.9 63.53, 81.19 63.89 C78.48 64.26, 75.7 64.54, 72.92 64.72 C70.14 64.91, 67.31 65, 64.5 65 C61.69 65, 58.86 64.91, 56.08 64.72 C53.3 64.54, 50.52 64.26, 47.81 63.89 C45.1 63.53, 42.41 63.07, 39.82 62.53 C37.22 61.98, 34.68 61.35, 32.25 60.65 C29.82 59.94, 27.46 59.14, 25.23 58.28 C23.01 57.42, 20.88 56.48, 18.89 55.48 C16.91 54.48, 15.04 53.41, 13.33 52.28 C11.62 51.16, 10.04 49.97, 8.64 48.75 C7.24 47.53, 5.98 46.24, 4.91 44.94 C3.84 43.63, 2.92 42.28, 2.2 40.91 C1.47 39.55, 0.92 38.14, 0.55 36.74 C0.19 35.34, 0 33.91, 0 32.5 C0 31.09, 0.19 29.66, 0.55 28.26 C0.92 26.86, 1.47 25.45, 2.2 24.09 C2.92 22.72, 3.84 21.37, 4.91 20.06 C5.98 18.76, 7.24 17.47, 8.64 16.25 C10.04 15.03, 11.62 13.84, 13.33 12.72 C15.04 11.59, 16.91 10.52, 18.89 9.52 C20.88 8.52, 23.01 7.58, 25.23 6.72 C27.46 5.86, 29.82 5.06, 32.25 4.35 C34.68 3.65, 37.22 3.02, 39.82 2.47 C42.41 1.93, 45.1 1.47, 47.81 1.11 C50.52 0.74, 53.3 0.46, 56.08 0.28 C58.86 0.09, 61.69 0, 64.5 0 C67.31 0, 70.14 0.09, 72.92 0.28 C75.7 0.46, 78.48 0.74, 81.19 1.11 C83.9 1.47, 86.59 1.93, 89.18 2.47 C91.78 3.02, 94.32 3.65, 96.75 4.35 C99.18 5.06, 101.54 5.86, 103.77 6.72 C105.99 7.58, 108.12 8.52, 110.11 9.52 C112.09 10.52, 113.96 11.59, 115.67 12.72 C117.38 13.84, 118.96 15.03, 120.36 16.25 C121.76 17.47, 123.02 18.76, 124.09 20.06 C125.16 21.37, 126.08 22.72, 126.8 24.09 C127.53 25.45, 128.08 26.86, 128.45 28.26 C128.81 29.66, 128.91 31.79, 129 32.5 C129.09 33.21, 129.09 31.79, 129 32.5" stroke="#000000" stroke-width="2" fill="none"></path></g><g stroke-linecap="round" transform="translate(2034.1507936507937 378.57142857142844) rotate(0 64.5 32.5)"><path d="M129 32.5 C129 33.91, 128.81 35.34, 128.45 36.74 C128.08 38.14, 127.53 39.55, 126.8 40.91 C126.08 42.28, 125.16 43.63, 124.09 44.94 C123.02 46.24, 121.76 47.53, 120.36 48.75 C118.96 49.97, 117.38 51.16, 115.67 52.28 C113.96 53.41, 112.09 54.48, 110.11 55.48 C108.12 56.48, 105.99 57.42, 103.77 58.28 C101.54 59.14, 99.18 59.94, 96.75 60.65 C94.32 61.35, 91.78 61.98, 89.18 62.53 C86.59 63.07, 83.9 63.53, 81.19 63.89 C78.48 64.26, 75.7 64.54, 72.92 64.72 C70.14 64.91, 67.31 65, 64.5 65 C61.69 65, 58.86 64.91, 56.08 64.72 C53.3 64.54, 50.52 64.26, 47.81 63.89 C45.1 63.53, 42.41 63.07, 39.82 62.53 C37.22 61.98, 34.68 61.35, 32.25 60.65 C29.82 59.94, 27.46 59.14, 25.23 58.28 C23.01 57.42, 20.88 56.48, 18.89 55.48 C16.91 54.48, 15.04 53.41, 13.33 52.28 C11.62 51.16, 10.04 49.97, 8.64 48.75 C7.24 47.53, 5.98 46.24, 4.91 44.94 C3.84 43.63, 2.92 42.28, 2.2 40.91 C1.47 39.55, 0.92 38.14, 0.55 36.74 C0.19 35.34, 0 33.91, 0 32.5 C0 31.09, 0.19 29.66, 0.55 28.26 C0.92 26.86, 1.47 25.45, 2.2 24.09 C2.92 22.72, 3.84 21.37, 4.91 20.06 C5.98 18.76, 7.24 17.47, 8.64 16.25 C10.04 15.03, 11.62 13.84, 13.33 12.72 C15.04 11.59, 16.91 10.52, 18.89 9.52 C20.88 8.52, 23.01 7.58, 25.23 6.72 C27.46 5.86, 29.82 5.06, 32.25 4.35 C34.68 3.65, 37.22 3.02, 39.82 2.47 C42.41 1.93, 45.1 1.47, 47.81 1.11 C50.52 0.74, 53.3 0.46, 56.08 0.28 C58.86 0.09, 61.69 0, 64.5 0 C67.31 0, 70.14 0.09, 72.92 0.28 C75.7 0.46, 78.48 0.74, 81.19 1.11 C83.9 1.47, 86.59 1.93, 89.18 2.47 C91.78 3.02, 94.32 3.65, 96.75 4.35 C99.18 5.06, 101.54 5.86, 103.77 6.72 C105.99 7.58, 108.12 8.52, 110.11 9.52 C112.09 10.52, 113.96 11.59, 115.67 12.72 C117.38 13.84, 118.96 15.03, 120.36 16.25 C121.76 17.47, 123.02 18.76, 124.09 20.06 C125.16 21.37, 126.08 22.72, 126.8 24.09 C127.53 25.45, 128.08 26.86, 128.45 28.26 C128.81 29.66, 128.91 31.79, 129 32.5 C129.09 33.21, 129.09 31.79, 129 32.5" stroke="#000000" stroke-width="2" fill="none"></path></g><g transform="translate(1509.7936507936515 376.42857142857144) rotate(0 46.5 25)"><text x="46.5" y="18" font-family="Virgil, Segoe UI Emoji" font-size="20px" fill="#000000" text-anchor="middle" style="white-space: pre;" direction="ltr">datum_ </text><text x="46.5" y="43" font-family="Virgil, Segoe UI Emoji" font-size="20px" fill="#000000" text-anchor="middle" style="white-space: pre;" direction="ltr">aufnahme</text></g><g transform="translate(150.65079365079458 403.2142857142859) rotate(0 54.99999999999997 12.5)"><text x="55" y="18" font-family="Virgil, Segoe UI Emoji" font-size="20px" fill="#000000" text-anchor="middle" style="white-space: pre;" direction="ltr">bezeichnung</text></g><g transform="translate(748.0793650793659 27.500000000000227) rotate(0 39 12.5)"><text x="39" y="18" font-family="Virgil, Segoe UI Emoji" font-size="20px" fill="#000000" text-anchor="middle" style="white-space: pre;" direction="ltr">vorname</text></g><g transform="translate(1925.2222222222226 586.0714285714287) rotate(0 39 12.5)"><text x="39" y="18" font-family="Virgil, Segoe UI Emoji" font-size="20px" fill="#000000" text-anchor="middle" style="white-space: pre;" direction="ltr">vorname</text></g><g transform="translate(762.3650793650801 373.2142857142858) rotate(0 39 12.5)"><text x="39" y="18" font-family="Virgil, Segoe UI Emoji" font-size="20px" fill="#000000" text-anchor="middle" style="white-space: pre;" direction="ltr">vorname</text></g><g transform="translate(799.0793650793659 751.7857142857142) rotate(0 48 12.5)"><text x="48" y="18" font-family="Virgil, Segoe UI Emoji" font-size="20px" fill="#000000" text-anchor="middle" style="white-space: pre;" direction="ltr">stockwerk</text></g><g transform="translate(880.1507936507943 27.5) rotate(0 45.5 12.5)"><text x="45.5" y="18" font-family="Virgil, Segoe UI Emoji" font-size="20px" fill="#000000" text-anchor="middle" style="white-space: pre;" direction="ltr">nachname</text></g><g transform="translate(2045.86507936508 584.642857142857) rotate(0 45.5 12.5)"><text x="45.5" y="18" font-family="Virgil, Segoe UI Emoji" font-size="20px" fill="#000000" text-anchor="middle" style="white-space: pre;" direction="ltr">nachname</text></g><g transform="translate(894.4365079365085 373.21428571428555) rotate(0 45.5 12.5)"><text x="45.5" y="18" font-family="Virgil, Segoe UI Emoji" font-size="20px" fill="#000000" text-anchor="middle" style="white-space: pre;" direction="ltr">nachname</text></g><g transform="translate(1631.86507936508 380.3571428571428) rotate(0 52.5 25)"><text x="52.5" y="18" font-family="Virgil, Segoe UI Emoji" font-size="20px" fill="#000000" text-anchor="middle" style="white-space: pre;" direction="ltr">datum_ </text><text x="52.5" y="43" font-family="Virgil, Segoe UI Emoji" font-size="20px" fill="#000000" text-anchor="middle" style="white-space: pre;" direction="ltr">entlassung</text></g><g transform="translate(2040.1507936507937 386.07142857142844) rotate(0 58.5 25)"><text x="58.5" y="18" font-family="Virgil, Segoe UI Emoji" font-size="20px" fill="#000000" text-anchor="middle" style="white-space: pre;" direction="ltr">krankenkass</text><text x="58.5" y="43" font-family="Virgil, Segoe UI Emoji" font-size="20px" fill="#000000" text-anchor="middle" style="white-space: pre;" direction="ltr">en_nr</text></g><g stroke-linecap="round" transform="translate(29.150793650793787 386.3095528738837) rotate(0 55 27.5)"><path d="M110 27.5 C110 28.8, 109.81 30.12, 109.44 31.41 C109.07 32.7, 108.51 34, 107.77 35.25 C107.04 36.5, 106.11 37.74, 105.03 38.92 C103.95 40.11, 102.68 41.27, 101.27 42.37 C99.86 43.47, 98.27 44.52, 96.57 45.51 C94.86 46.49, 92.99 47.43, 91.02 48.28 C89.05 49.14, 86.93 49.93, 84.74 50.63 C82.54 51.34, 80.22 51.97, 77.85 52.51 C75.47 53.06, 73 53.52, 70.5 53.89 C67.99 54.25, 65.41 54.53, 62.83 54.72 C60.24 54.91, 57.61 55, 55 55 C52.39 55, 49.76 54.91, 47.17 54.72 C44.59 54.53, 42.01 54.25, 39.5 53.89 C37 53.52, 34.53 53.06, 32.15 52.51 C29.78 51.97, 27.46 51.34, 25.26 50.63 C23.07 49.93, 20.95 49.14, 18.98 48.28 C17.01 47.43, 15.14 46.49, 13.43 45.51 C11.73 44.52, 10.14 43.47, 8.73 42.37 C7.32 41.27, 6.05 40.11, 4.97 38.92 C3.89 37.74, 2.96 36.5, 2.23 35.25 C1.49 34, 0.93 32.7, 0.56 31.41 C0.19 30.12, 0 28.8, 0 27.5 C0 26.2, 0.19 24.88, 0.56 23.59 C0.93 22.3, 1.49 21, 2.23 19.75 C2.96 18.5, 3.89 17.26, 4.97 16.08 C6.05 14.89, 7.32 13.73, 8.73 12.63 C10.14 11.53, 11.73 10.48, 13.43 9.49 C15.14 8.51, 17.01 7.57, 18.98 6.72 C20.95 5.86, 23.07 5.07, 25.26 4.37 C27.46 3.66, 29.78 3.03, 32.15 2.49 C34.53 1.94, 37 1.48, 39.5 1.11 C42.01 0.75, 44.59 0.47, 47.17 0.28 C49.76 0.09, 52.39 0, 55 0 C57.61 0, 60.24 0.09, 62.83 0.28 C65.41 0.47, 67.99 0.75, 70.5 1.11 C73 1.48, 75.47 1.94, 77.85 2.49 C80.22 3.03, 82.54 3.66, 84.74 4.37 C86.93 5.07, 89.05 5.86, 91.02 6.72 C92.99 7.57, 94.86 8.51, 96.57 9.49 C98.27 10.48, 99.86 11.53, 101.27 12.63 C102.68 13.73, 103.95 14.89, 105.03 16.08 C106.11 17.26, 107.04 18.5, 107.77 19.75 C108.51 21, 109.07 22.3, 109.44 23.59 C109.81 24.88, 109.91 26.85, 110 27.5 C110.09 28.15, 110.09 26.85, 110 27.5" stroke="#000000" stroke-width="2" fill="none"></path></g><g transform="translate(75.15079365079379 401.3095528738837) rotate(0 9 12.5)"><text x="9" y="18" font-family="Virgil, Segoe UI Emoji" font-size="20px" fill="#000000" text-anchor="middle" style="white-space: pre;" direction="ltr">id</text></g><g stroke-linecap="round"><g transform="translate(79.15079365079333 426.3095528738835) rotate(0 10 -0.7142857142857224)"><path d="M0 0 C3.33 -0.24, 16.67 -1.19, 20 -1.43 M0 0 C3.33 -0.24, 16.67 -1.19, 20 -1.43" stroke="#000000" stroke-width="2" fill="none"></path></g></g><g stroke-linecap="round" transform="translate(592.0079365079365 13.452410016740942) rotate(0 55 27.5)"><path d="M110 27.5 C110 28.8, 109.81 30.12, 109.44 31.41 C109.07 32.7, 108.51 34, 107.77 35.25 C107.04 36.5, 106.11 37.74, 105.03 38.92 C103.95 40.11, 102.68 41.27, 101.27 42.37 C99.86 43.47, 98.27 44.52, 96.57 45.51 C94.86 46.49, 92.99 47.43, 91.02 48.28 C89.05 49.14, 86.93 49.93, 84.74 50.63 C82.54 51.34, 80.22 51.97, 77.85 52.51 C75.47 53.06, 73 53.52, 70.5 53.89 C67.99 54.25, 65.41 54.53, 62.83 54.72 C60.24 54.91, 57.61 55, 55 55 C52.39 55, 49.76 54.91, 47.17 54.72 C44.59 54.53, 42.01 54.25, 39.5 53.89 C37 53.52, 34.53 53.06, 32.15 52.51 C29.78 51.97, 27.46 51.34, 25.26 50.63 C23.07 49.93, 20.95 49.14, 18.98 48.28 C17.01 47.43, 15.14 46.49, 13.43 45.51 C11.73 44.52, 10.14 43.47, 8.73 42.37 C7.32 41.27, 6.05 40.11, 4.97 38.92 C3.89 37.74, 2.96 36.5, 2.23 35.25 C1.49 34, 0.93 32.7, 0.56 31.41 C0.19 30.12, 0 28.8, 0 27.5 C0 26.2, 0.19 24.88, 0.56 23.59 C0.93 22.3, 1.49 21, 2.23 19.75 C2.96 18.5, 3.89 17.26, 4.97 16.08 C6.05 14.89, 7.32 13.73, 8.73 12.63 C10.14 11.53, 11.73 10.48, 13.43 9.49 C15.14 8.51, 17.01 7.57, 18.98 6.72 C20.95 5.86, 23.07 5.07, 25.26 4.37 C27.46 3.66, 29.78 3.03, 32.15 2.49 C34.53 1.94, 37 1.48, 39.5 1.11 C42.01 0.75, 44.59 0.47, 47.17 0.28 C49.76 0.09, 52.39 0, 55 0 C57.61 0, 60.24 0.09, 62.83 0.28 C65.41 0.47, 67.99 0.75, 70.5 1.11 C73 1.48, 75.47 1.94, 77.85 2.49 C80.22 3.03, 82.54 3.66, 84.74 4.37 C86.93 5.07, 89.05 5.86, 91.02 6.72 C92.99 7.57, 94.86 8.51, 96.57 9.49 C98.27 10.48, 99.86 11.53, 101.27 12.63 C102.68 13.73, 103.95 14.89, 105.03 16.08 C106.11 17.26, 107.04 18.5, 107.77 19.75 C108.51 21, 109.07 22.3, 109.44 23.59 C109.81 24.88, 109.91 26.85, 110 27.5 C110.09 28.15, 110.09 26.85, 110 27.5" stroke="#000000" stroke-width="2" fill="none"></path></g><g transform="translate(638.0079365079365 28.45241001674094) rotate(0 9 12.5)"><text x="9" y="18" font-family="Virgil, Segoe UI Emoji" font-size="20px" fill="#000000" text-anchor="middle" style="white-space: pre;" direction="ltr">id</text></g><g stroke-linecap="round"><g transform="translate(642.007936507936 53.452410016740714) rotate(0 10 -0.7142857142857792)"><path d="M0 0 C3.33 -0.24, 16.67 -1.19, 20 -1.43 M0 0 C3.33 -0.24, 16.67 -1.19, 20 -1.43" stroke="#000000" stroke-width="2" fill="none"></path></g></g><g stroke-linecap="round" transform="translate(1906.2936507936506 383.45241001674094) rotate(0 55 27.5)"><path d="M110 27.5 C110 28.8, 109.81 30.12, 109.44 31.41 C109.07 32.7, 108.51 34, 107.77 35.25 C107.04 36.5, 106.11 37.74, 105.03 38.92 C103.95 40.11, 102.68 41.27, 101.27 42.37 C99.86 43.47, 98.27 44.52, 96.57 45.51 C94.86 46.49, 92.99 47.43, 91.02 48.28 C89.05 49.14, 86.93 49.93, 84.74 50.63 C82.54 51.34, 80.22 51.97, 77.85 52.51 C75.47 53.06, 73 53.52, 70.5 53.89 C67.99 54.25, 65.41 54.53, 62.83 54.72 C60.24 54.91, 57.61 55, 55 55 C52.39 55, 49.76 54.91, 47.17 54.72 C44.59 54.53, 42.01 54.25, 39.5 53.89 C37 53.52, 34.53 53.06, 32.15 52.51 C29.78 51.97, 27.46 51.34, 25.26 50.63 C23.07 49.93, 20.95 49.14, 18.98 48.28 C17.01 47.43, 15.14 46.49, 13.43 45.51 C11.73 44.52, 10.14 43.47, 8.73 42.37 C7.32 41.27, 6.05 40.11, 4.97 38.92 C3.89 37.74, 2.96 36.5, 2.23 35.25 C1.49 34, 0.93 32.7, 0.56 31.41 C0.19 30.12, 0 28.8, 0 27.5 C0 26.2, 0.19 24.88, 0.56 23.59 C0.93 22.3, 1.49 21, 2.23 19.75 C2.96 18.5, 3.89 17.26, 4.97 16.08 C6.05 14.89, 7.32 13.73, 8.73 12.63 C10.14 11.53, 11.73 10.48, 13.43 9.49 C15.14 8.51, 17.01 7.57, 18.98 6.72 C20.95 5.86, 23.07 5.07, 25.26 4.37 C27.46 3.66, 29.78 3.03, 32.15 2.49 C34.53 1.94, 37 1.48, 39.5 1.11 C42.01 0.75, 44.59 0.47, 47.17 0.28 C49.76 0.09, 52.39 0, 55 0 C57.61 0, 60.24 0.09, 62.83 0.28 C65.41 0.47, 67.99 0.75, 70.5 1.11 C73 1.48, 75.47 1.94, 77.85 2.49 C80.22 3.03, 82.54 3.66, 84.74 4.37 C86.93 5.07, 89.05 5.86, 91.02 6.72 C92.99 7.57, 94.86 8.51, 96.57 9.49 C98.27 10.48, 99.86 11.53, 101.27 12.63 C102.68 13.73, 103.95 14.89, 105.03 16.08 C106.11 17.26, 107.04 18.5, 107.77 19.75 C108.51 21, 109.07 22.3, 109.44 23.59 C109.81 24.88, 109.91 26.85, 110 27.5 C110.09 28.15, 110.09 26.85, 110 27.5" stroke="#000000" stroke-width="2" fill="none"></path></g><g transform="translate(1952.2936507936506 398.45241001674094) rotate(0 9 12.5)"><text x="9" y="18" font-family="Virgil, Segoe UI Emoji" font-size="20px" fill="#000000" text-anchor="middle" style="white-space: pre;" direction="ltr">id</text></g><g stroke-linecap="round"><g transform="translate(1956.2936507936502 423.4524100167407) rotate(0 10 -0.7142857142857224)"><path d="M0 0 C3.33 -0.24, 16.67 -1.19, 20 -1.43 M0 0 C3.33 -0.24, 16.67 -1.19, 20 -1.43" stroke="#000000" stroke-width="2" fill="none"></path></g></g><g stroke-linecap="round" transform="translate(1380.5793650793653 374.8809814453123) rotate(0 55 27.5)"><path d="M110 27.5 C110 28.8, 109.81 30.12, 109.44 31.41 C109.07 32.7, 108.51 34, 107.77 35.25 C107.04 36.5, 106.11 37.74, 105.03 38.92 C103.95 40.11, 102.68 41.27, 101.27 42.37 C99.86 43.47, 98.27 44.52, 96.57 45.51 C94.86 46.49, 92.99 47.43, 91.02 48.28 C89.05 49.14, 86.93 49.93, 84.74 50.63 C82.54 51.34, 80.22 51.97, 77.85 52.51 C75.47 53.06, 73 53.52, 70.5 53.89 C67.99 54.25, 65.41 54.53, 62.83 54.72 C60.24 54.91, 57.61 55, 55 55 C52.39 55, 49.76 54.91, 47.17 54.72 C44.59 54.53, 42.01 54.25, 39.5 53.89 C37 53.52, 34.53 53.06, 32.15 52.51 C29.78 51.97, 27.46 51.34, 25.26 50.63 C23.07 49.93, 20.95 49.14, 18.98 48.28 C17.01 47.43, 15.14 46.49, 13.43 45.51 C11.73 44.52, 10.14 43.47, 8.73 42.37 C7.32 41.27, 6.05 40.11, 4.97 38.92 C3.89 37.74, 2.96 36.5, 2.23 35.25 C1.49 34, 0.93 32.7, 0.56 31.41 C0.19 30.12, 0 28.8, 0 27.5 C0 26.2, 0.19 24.88, 0.56 23.59 C0.93 22.3, 1.49 21, 2.23 19.75 C2.96 18.5, 3.89 17.26, 4.97 16.08 C6.05 14.89, 7.32 13.73, 8.73 12.63 C10.14 11.53, 11.73 10.48, 13.43 9.49 C15.14 8.51, 17.01 7.57, 18.98 6.72 C20.95 5.86, 23.07 5.07, 25.26 4.37 C27.46 3.66, 29.78 3.03, 32.15 2.49 C34.53 1.94, 37 1.48, 39.5 1.11 C42.01 0.75, 44.59 0.47, 47.17 0.28 C49.76 0.09, 52.39 0, 55 0 C57.61 0, 60.24 0.09, 62.83 0.28 C65.41 0.47, 67.99 0.75, 70.5 1.11 C73 1.48, 75.47 1.94, 77.85 2.49 C80.22 3.03, 82.54 3.66, 84.74 4.37 C86.93 5.07, 89.05 5.86, 91.02 6.72 C92.99 7.57, 94.86 8.51, 96.57 9.49 C98.27 10.48, 99.86 11.53, 101.27 12.63 C102.68 13.73, 103.95 14.89, 105.03 16.08 C106.11 17.26, 107.04 18.5, 107.77 19.75 C108.51 21, 109.07 22.3, 109.44 23.59 C109.81 24.88, 109.91 26.85, 110 27.5 C110.09 28.15, 110.09 26.85, 110 27.5" stroke="#000000" stroke-width="2" fill="none"></path></g><g transform="translate(1426.5793650793653 389.8809814453123) rotate(0 9 12.5)"><text x="9" y="18" font-family="Virgil, Segoe UI Emoji" font-size="20px" fill="#000000" text-anchor="middle" style="white-space: pre;" direction="ltr">id</text></g><g stroke-linecap="round"><g transform="translate(1430.5793650793648 414.88098144531205) rotate(0 10 -0.7142857142857224)"><path d="M0 0 C3.33 -0.24, 16.67 -1.19, 20 -1.43 M0 0 C3.33 -0.24, 16.67 -1.19, 20 -1.43" stroke="#000000" stroke-width="2" fill="none"></path></g></g><g stroke-linecap="round" transform="translate(606.2936507936507 359.1666957310265) rotate(0 55 27.5)"><path d="M110 27.5 C110 28.8, 109.81 30.12, 109.44 31.41 C109.07 32.7, 108.51 34, 107.77 35.25 C107.04 36.5, 106.11 37.74, 105.03 38.92 C103.95 40.11, 102.68 41.27, 101.27 42.37 C99.86 43.47, 98.27 44.52, 96.57 45.51 C94.86 46.49, 92.99 47.43, 91.02 48.28 C89.05 49.14, 86.93 49.93, 84.74 50.63 C82.54 51.34, 80.22 51.97, 77.85 52.51 C75.47 53.06, 73 53.52, 70.5 53.89 C67.99 54.25, 65.41 54.53, 62.83 54.72 C60.24 54.91, 57.61 55, 55 55 C52.39 55, 49.76 54.91, 47.17 54.72 C44.59 54.53, 42.01 54.25, 39.5 53.89 C37 53.52, 34.53 53.06, 32.15 52.51 C29.78 51.97, 27.46 51.34, 25.26 50.63 C23.07 49.93, 20.95 49.14, 18.98 48.28 C17.01 47.43, 15.14 46.49, 13.43 45.51 C11.73 44.52, 10.14 43.47, 8.73 42.37 C7.32 41.27, 6.05 40.11, 4.97 38.92 C3.89 37.74, 2.96 36.5, 2.23 35.25 C1.49 34, 0.93 32.7, 0.56 31.41 C0.19 30.12, 0 28.8, 0 27.5 C0 26.2, 0.19 24.88, 0.56 23.59 C0.93 22.3, 1.49 21, 2.23 19.75 C2.96 18.5, 3.89 17.26, 4.97 16.08 C6.05 14.89, 7.32 13.73, 8.73 12.63 C10.14 11.53, 11.73 10.48, 13.43 9.49 C15.14 8.51, 17.01 7.57, 18.98 6.72 C20.95 5.86, 23.07 5.07, 25.26 4.37 C27.46 3.66, 29.78 3.03, 32.15 2.49 C34.53 1.94, 37 1.48, 39.5 1.11 C42.01 0.75, 44.59 0.47, 47.17 0.28 C49.76 0.09, 52.39 0, 55 0 C57.61 0, 60.24 0.09, 62.83 0.28 C65.41 0.47, 67.99 0.75, 70.5 1.11 C73 1.48, 75.47 1.94, 77.85 2.49 C80.22 3.03, 82.54 3.66, 84.74 4.37 C86.93 5.07, 89.05 5.86, 91.02 6.72 C92.99 7.57, 94.86 8.51, 96.57 9.49 C98.27 10.48, 99.86 11.53, 101.27 12.63 C102.68 13.73, 103.95 14.89, 105.03 16.08 C106.11 17.26, 107.04 18.5, 107.77 19.75 C108.51 21, 109.07 22.3, 109.44 23.59 C109.81 24.88, 109.91 26.85, 110 27.5 C110.09 28.15, 110.09 26.85, 110 27.5" stroke="#000000" stroke-width="2" fill="none"></path></g><g transform="translate(652.2936507936507 374.1666957310265) rotate(0 9 12.5)"><text x="9" y="18" font-family="Virgil, Segoe UI Emoji" font-size="20px" fill="#000000" text-anchor="middle" style="white-space: pre;" direction="ltr">id</text></g><g stroke-linecap="round"><g transform="translate(656.2936507936503 399.16669573102627) rotate(0 10 -0.7142857142857224)"><path d="M0 0 C3.33 -0.24, 16.67 -1.19, 20 -1.43 M0 0 C3.33 -0.24, 16.67 -1.19, 20 -1.43" stroke="#000000" stroke-width="2" fill="none"></path></g></g><g stroke-linecap="round" transform="translate(664.8650793650794 736.3095528738837) rotate(0 55 27.5)"><path d="M110 27.5 C110 28.8, 109.81 30.12, 109.44 31.41 C109.07 32.7, 108.51 34, 107.77 35.25 C107.04 36.5, 106.11 37.74, 105.03 38.92 C103.95 40.11, 102.68 41.27, 101.27 42.37 C99.86 43.47, 98.27 44.52, 96.57 45.51 C94.86 46.49, 92.99 47.43, 91.02 48.28 C89.05 49.14, 86.93 49.93, 84.74 50.63 C82.54 51.34, 80.22 51.97, 77.85 52.51 C75.47 53.06, 73 53.52, 70.5 53.89 C67.99 54.25, 65.41 54.53, 62.83 54.72 C60.24 54.91, 57.61 55, 55 55 C52.39 55, 49.76 54.91, 47.17 54.72 C44.59 54.53, 42.01 54.25, 39.5 53.89 C37 53.52, 34.53 53.06, 32.15 52.51 C29.78 51.97, 27.46 51.34, 25.26 50.63 C23.07 49.93, 20.95 49.14, 18.98 48.28 C17.01 47.43, 15.14 46.49, 13.43 45.51 C11.73 44.52, 10.14 43.47, 8.73 42.37 C7.32 41.27, 6.05 40.11, 4.97 38.92 C3.89 37.74, 2.96 36.5, 2.23 35.25 C1.49 34, 0.93 32.7, 0.56 31.41 C0.19 30.12, 0 28.8, 0 27.5 C0 26.2, 0.19 24.88, 0.56 23.59 C0.93 22.3, 1.49 21, 2.23 19.75 C2.96 18.5, 3.89 17.26, 4.97 16.08 C6.05 14.89, 7.32 13.73, 8.73 12.63 C10.14 11.53, 11.73 10.48, 13.43 9.49 C15.14 8.51, 17.01 7.57, 18.98 6.72 C20.95 5.86, 23.07 5.07, 25.26 4.37 C27.46 3.66, 29.78 3.03, 32.15 2.49 C34.53 1.94, 37 1.48, 39.5 1.11 C42.01 0.75, 44.59 0.47, 47.17 0.28 C49.76 0.09, 52.39 0, 55 0 C57.61 0, 60.24 0.09, 62.83 0.28 C65.41 0.47, 67.99 0.75, 70.5 1.11 C73 1.48, 75.47 1.94, 77.85 2.49 C80.22 3.03, 82.54 3.66, 84.74 4.37 C86.93 5.07, 89.05 5.86, 91.02 6.72 C92.99 7.57, 94.86 8.51, 96.57 9.49 C98.27 10.48, 99.86 11.53, 101.27 12.63 C102.68 13.73, 103.95 14.89, 105.03 16.08 C106.11 17.26, 107.04 18.5, 107.77 19.75 C108.51 21, 109.07 22.3, 109.44 23.59 C109.81 24.88, 109.91 26.85, 110 27.5 C110.09 28.15, 110.09 26.85, 110 27.5" stroke="#000000" stroke-width="2" fill="none"></path></g><g transform="translate(710.8650793650794 751.3095528738837) rotate(0 9 12.5)"><text x="9" y="18" font-family="Virgil, Segoe UI Emoji" font-size="20px" fill="#000000" text-anchor="middle" style="white-space: pre;" direction="ltr">id</text></g><g stroke-linecap="round"><g transform="translate(714.8650793650789 776.3095528738835) rotate(0 10 -0.7142857142857224)"><path d="M0 0 C3.33 -0.24, 16.67 -1.19, 20 -1.43 M0 0 C3.33 -0.24, 16.67 -1.19, 20 -1.43" stroke="#000000" stroke-width="2" fill="none"></path></g></g><g transform="translate(323.8650793650793 372.09526715959794) rotate(0 6 22.5)"><text x="6" y="32" font-family="Virgil, Segoe UI Emoji" font-size="36px" fill="#000000" text-anchor="middle" style="white-space: pre;" direction="ltr">1</text></g><g transform="translate(1326.0793650793653 357.80955287388383) rotate(0 9.5 22.5)"><text x="9.5" y="32" font-family="Virgil, Segoe UI Emoji" font-size="36px" fill="#000000" text-anchor="middle" style="white-space: pre;" direction="ltr">n</text></g><g transform="translate(325.29365079365107 517.809552873884) rotate(0 6 22.5)"><text x="6" y="32" font-family="Virgil, Segoe UI Emoji" font-size="36px" fill="#000000" text-anchor="middle" style="white-space: pre;" direction="ltr">1</text></g><g transform="translate(1327.5079365079364 540.6666957310267) rotate(0 9.5 22.5)"><text x="9.5" y="32" font-family="Virgil, Segoe UI Emoji" font-size="36px" fill="#000000" text-anchor="middle" style="white-space: pre;" direction="ltr">n</text></g><g transform="translate(322.43650793650806 447.8095528738837) rotate(0 6 22.5)"><text x="6" y="32" font-family="Virgil, Segoe UI Emoji" font-size="36px" fill="#000000" text-anchor="middle" style="white-space: pre;" direction="ltr">1</text></g><g transform="translate(1327.5079365079364 449.23812430245516) rotate(0 9.5 22.5)"><text x="9.5" y="32" font-family="Virgil, Segoe UI Emoji" font-size="36px" fill="#000000" text-anchor="middle" style="white-space: pre;" direction="ltr">n</text></g><g transform="translate(593.2222222222223 220.66669573102683) rotate(0 9.5 22.5)"><text x="9.5" y="32" font-family="Virgil, Segoe UI Emoji" font-size="36px" fill="#000000" text-anchor="middle" style="white-space: pre;" direction="ltr">n</text></g><g transform="translate(970.2222222222218 192.09526715959805) rotate(0 12.5 22.5)"><text x="12.5" y="32" font-family="Virgil, Segoe UI Emoji" font-size="36px" fill="#000000" text-anchor="middle" style="white-space: pre;" direction="ltr">m</text></g><g transform="translate(603.2222222222223 440.66669573102683) rotate(0 9.5 22.5)"><text x="9.5" y="32" font-family="Virgil, Segoe UI Emoji" font-size="36px" fill="#000000" text-anchor="middle" style="white-space: pre;" direction="ltr">n</text></g><g transform="translate(977.3650793650792 454.95241001674106) rotate(0 12.5 22.5)"><text x="12.5" y="32" font-family="Virgil, Segoe UI Emoji" font-size="36px" fill="#000000" text-anchor="middle" style="white-space: pre;" direction="ltr">m</text></g><g transform="translate(603.2222222222223 696.3809814453125) rotate(0 9.5 22.5)"><text x="9.5" y="32" font-family="Virgil, Segoe UI Emoji" font-size="36px" fill="#000000" text-anchor="middle" style="white-space: pre;" direction="ltr">n</text></g><g transform="translate(961.0079365079363 784.952410016741) rotate(0 6 22.5)"><text x="6" y="32" font-family="Virgil, Segoe UI Emoji" font-size="36px" fill="#000000" text-anchor="middle" style="white-space: pre;" direction="ltr">1</text></g><g stroke-linecap="round"><g transform="translate(268.43650793650806 471.90482003348257) rotate(0 93.57142857142856 -80)"><path d="M0 0 C31.19 -26.67, 155.95 -133.33, 187.14 -160 M0 0 C31.19 -26.67, 155.95 -133.33, 187.14 -160" stroke="#000000" stroke-width="2" fill="none"></path></g></g><g stroke-linecap="round"><g transform="translate(507.00793650793673 270.47624860491123) rotate(0 78.57142857142856 -65)"><path d="M0 0 C26.19 -21.67, 130.95 -108.33, 157.14 -130 M0 0 C26.19 -21.67, 130.95 -108.33, 157.14 -130" stroke="#000000" stroke-width="2" fill="none"></path></g></g><g stroke-linecap="round"><g transform="translate(271.29365079365095 506.1905343191969) rotate(0 87.85714285714289 -0.7142857142857224)"><path d="M0 0 C29.29 -0.24, 146.43 -1.19, 175.71 -1.43 M0 0 C29.29 -0.24, 146.43 -1.19, 175.71 -1.43" stroke="#000000" stroke-width="2" fill="none"></path></g></g><g stroke-linecap="round"><g transform="translate(534.1507936507938 504.76196289062545) rotate(0 65 0.7142857142857224)"><path d="M0 0 C21.67 0.24, 108.33 1.19, 130 1.43 M0 0 C21.67 0.24, 108.33 1.19, 130 1.43" stroke="#000000" stroke-width="2" fill="none"></path></g></g><g stroke-linecap="round"><g transform="translate(927.0079365079367 506.1905343191969) rotate(0 93.57142857142856 0)"><path d="M0 0 C31.19 0, 155.95 0, 187.14 0 M0 0 C31.19 0, 155.95 0, 187.14 0" stroke="#000000" stroke-width="2" fill="none"></path></g></g><g stroke-linecap="round"><g transform="translate(1201.293650793651 506.1905343191969) rotate(0 103.57142857142856 -0.7142857142857224)"><path d="M0 0 C34.52 -0.24, 172.62 -1.19, 207.14 -1.43 M0 0 C34.52 -0.24, 172.62 -1.19, 207.14 -1.43" stroke="#000000" stroke-width="2" fill="none"></path></g></g><g stroke-linecap="round"><g transform="translate(932.7222222222223 133.33339146205412) rotate(0 99.28571428571433 72.14285714285711)"><path d="M0 0 C33.1 24.05, 165.48 120.24, 198.57 144.29 M0 0 C33.1 24.05, 165.48 120.24, 198.57 144.29" stroke="#000000" stroke-width="2" fill="none"></path></g></g><g stroke-linecap="round"><g transform="translate(1181.293650793651 314.76196289062545) rotate(0 114.28571428571422 83.57142857142856)"><path d="M0 0 C38.1 27.86, 190.48 139.29, 228.57 167.14 M0 0 C38.1 27.86, 190.48 139.29, 228.57 167.14" stroke="#000000" stroke-width="2" fill="none"></path></g></g><g stroke-linecap="round"><g transform="translate(1138.436507936508 724.7619628906253) rotate(0 -99.28571428571422 65.71428571428572)"><path d="M0 0 C-33.1 21.9, -165.48 109.52, -198.57 131.43 M0 0 C-33.1 21.9, -165.48 109.52, -198.57 131.43" stroke="#000000" stroke-width="2" fill="none"></path></g></g><g stroke-linecap="round"><g transform="translate(462.7222222222223 677.6191057477682) rotate(0 -96.42857142857133 -76.42857142857139)"><path d="M0 0 C-32.14 -25.48, -160.71 -127.38, -192.86 -152.86 M0 0 C-32.14 -25.48, -160.71 -127.38, -192.86 -152.86" stroke="#000000" stroke-width="2" fill="none"></path></g></g><g stroke-linecap="round"><g transform="translate(515.5793650793652 720.4762486049111) rotate(0 81.42857142857144 64.99999999999994)"><path d="M0 0 C27.14 21.67, 135.71 108.33, 162.86 130 M0 0 C27.14 21.67, 135.71 108.33, 162.86 130" stroke="#000000" stroke-width="2" fill="none"></path></g></g><g stroke-linecap="round"><g transform="translate(1188.436507936508 689.0476771763397) rotate(0 110 -72.85714285714283)"><path d="M0 0 C36.67 -24.29, 183.33 -121.43, 220 -145.71 M0 0 C36.67 -24.29, 183.33 -121.43, 220 -145.71" stroke="#000000" stroke-width="2" fill="none"></path></g></g><g stroke-linecap="round"><g transform="translate(1674.1507936507937 504.76196289062545) rotate(0 37.14285714285711 0.7142857142857224)"><path d="M0 0 C12.38 0.24, 61.9 1.19, 74.29 1.43 M0 0 C12.38 0.24, 61.9 1.19, 74.29 1.43" stroke="#000000" stroke-width="2" fill="none"></path></g></g><g stroke-linecap="round"><g transform="translate(1839.865079365079 507.61910574776823) rotate(0 34.28571428571445 0.7142857142857224)"><path d="M0 0 C11.43 0.24, 57.14 1.19, 68.57 1.43 M0 0 C11.43 0.24, 57.14 1.19, 68.57 1.43" stroke="#000000" stroke-width="2" fill="none"></path></g></g><g transform="translate(1875.2936507936506 473.8333914620541) rotate(0 6 22.5)"><text x="6" y="32" font-family="Virgil, Segoe UI Emoji" font-size="36px" fill="#000000" text-anchor="middle" style="white-space: pre;" direction="ltr">1</text></g><g transform="translate(1687.5079365079364 465.90482003348257) rotate(0 9.5 22.5)"><text x="9.5" y="32" font-family="Virgil, Segoe UI Emoji" font-size="36px" fill="#000000" text-anchor="middle" style="white-space: pre;" direction="ltr">n</text></g></svg>