<svg version="1.1" xmlns="http://www.w3.org/2000/svg" viewBox="0 0 1642.6904761904757 773.3333333333337" width="1642.6904761904757" height="773.3333333333337">
  <!-- svg-source:excalidraw -->
  
  <defs>
    <style>
      @font-face {
        font-family: "Virgil";
        src: url("https://excalidraw.com/Virgil.woff2");
      }
      @font-face {
        font-family: "Cascadia";
        src: url("https://excalidraw.com/Cascadia.woff2");
      }
    </style>
  </defs>
  <rect x="0" y="0" width="1642.6904761904757" height="773.3333333333337" fill="#ffffff"></rect><g stroke-linecap="round" transform="translate(10 200.4166666666673) rotate(0 129.5 72.5)"><path d="M0 0 C56.79 0, 113.57 0, 259 0 M0 0 C66.75 0, 133.5 0, 259 0 M259 0 C259 31.87, 259 63.73, 259 145 M259 0 C259 40.94, 259 81.88, 259 145 M259 145 C168.33 145, 77.67 145, 0 145 M259 145 C199.02 145, 139.05 145, 0 145 M0 145 C0 102.08, 0 59.16, 0 0 M0 145 C0 106.23, 0 67.47, 0 0" stroke="#000000" stroke-width="2" fill="none"></path></g><g transform="translate(15 205.4166666666673) rotate(0 123 67.5)"><text x="0" y="32" font-family="Virgil, Segoe UI Emoji" font-size="36px" fill="#000000" text-anchor="start" style="white-space: pre;" direction="ltr">abteilung</text><text x="0" y="77" font-family="Virgil, Segoe UI Emoji" font-size="36px" fill="#000000" text-anchor="start" style="white-space: pre;" direction="ltr">id        (PK)</text><text x="0" y="122" font-family="Virgil, Segoe UI Emoji" font-size="36px" fill="#000000" text-anchor="start" style="white-space: pre;" direction="ltr">bezeichnung</text></g><g stroke-linecap="round"><g transform="translate(15.66666666666623 247.99599783761198) rotate(0 125.83333333333334 -0.8333333333332575)"><path d="M0 0 C41.94 -0.28, 209.72 -1.39, 251.67 -1.67 M0 0 C41.94 -0.28, 209.72 -1.39, 251.67 -1.67" stroke="#000000" stroke-width="2" fill="none"></path></g></g><g stroke-linecap="round" transform="translate(349.5833333333337 62.5000000000004) rotate(0 156.5 117.5)"><path d="M0 0 C92.64 0, 185.27 0, 313 0 M0 0 C81.74 0, 163.48 0, 313 0 M313 0 C313 53.17, 313 106.35, 313 235 M313 0 C313 57.57, 313 115.13, 313 235 M313 235 C228.62 235, 144.23 235, 0 235 M313 235 C250.22 235, 187.44 235, 0 235 M0 235 C0 170.12, 0 105.24, 0 0 M0 235 C0 142.2, 0 49.39, 0 0" stroke="#000000" stroke-width="2" fill="none"></path></g><g transform="translate(354.5833333333337 67.5000000000004) rotate(0 151.5 112.5)"><text x="0" y="32" font-family="Virgil, Segoe UI Emoji" font-size="36px" fill="#000000" text-anchor="start" style="white-space: pre;" direction="ltr">pflegekraft</text><text x="0" y="77" font-family="Virgil, Segoe UI Emoji" font-size="36px" fill="#000000" text-anchor="start" style="white-space: pre;" direction="ltr">id           (PK)</text><text x="0" y="122" font-family="Virgil, Segoe UI Emoji" font-size="36px" fill="#000000" text-anchor="start" style="white-space: pre;" direction="ltr">vorname</text><text x="0" y="167" font-family="Virgil, Segoe UI Emoji" font-size="36px" fill="#000000" text-anchor="start" style="white-space: pre;" direction="ltr">nachname</text><text x="0" y="212" font-family="Virgil, Segoe UI Emoji" font-size="36px" fill="#000000" text-anchor="start" style="white-space: pre;" direction="ltr">abteilung_id (FK)</text></g><g stroke-linecap="round"><g transform="translate(351.08333333333326 112.30151948474742) rotate(0 153.33333333333337 1.1368683772161603e-13)"><path d="M0 0 C51.11 0, 255.56 0, 306.67 0 M0 0 C51.11 0, 255.56 0, 306.67 0" stroke="#000000" stroke-width="2" fill="none"></path></g></g><g stroke-linecap="round" transform="translate(349.5833333333326 573.3333333333337) rotate(0 158.5 95)"><path d="M0 0 C69.89 0, 139.77 0, 317 0 M0 0 C119.16 0, 238.32 0, 317 0 M317 0 C317 75.97, 317 151.94, 317 190 M317 0 C317 53.77, 317 107.54, 317 190 M317 190 C230.26 190, 143.53 190, 0 190 M317 190 C242.17 190, 167.35 190, 0 190 M0 190 C0 144.22, 0 98.43, 0 0 M0 190 C0 151.85, 0 113.71, 0 0" stroke="#000000" stroke-width="2" fill="none"></path></g><g transform="translate(354.5833333333326 578.3333333333337) rotate(0 151.5 90)"><text x="0" y="32" font-family="Virgil, Segoe UI Emoji" font-size="36px" fill="#000000" text-anchor="start" style="white-space: pre;" direction="ltr">zimmer</text><text x="0" y="77" font-family="Virgil, Segoe UI Emoji" font-size="36px" fill="#000000" text-anchor="start" style="white-space: pre;" direction="ltr">id           (PK)</text><text x="0" y="122" font-family="Virgil, Segoe UI Emoji" font-size="36px" fill="#000000" text-anchor="start" style="white-space: pre;" direction="ltr">stockwerk</text><text x="0" y="167" font-family="Virgil, Segoe UI Emoji" font-size="36px" fill="#000000" text-anchor="start" style="white-space: pre;" direction="ltr">abteilung_id (FK)</text></g><g stroke-linecap="round"><g transform="translate(349.4166666666663 620.6348528180806) rotate(0 156.66666666666663 1.1368683772161603e-13)"><path d="M0 0 C52.22 0, 261.11 0, 313.33 0 M0 0 C52.22 0, 261.11 0, 313.33 0" stroke="#000000" stroke-width="2" fill="none"></path></g></g><g stroke-linecap="round" transform="translate(349.5833333333328 321.6666666666673) rotate(0 156.5 117.5)"><path d="M0 0 C84.52 0, 169.05 0, 313 0 M0 0 C78.25 0, 156.49 0, 313 0 M313 0 C313 78.78, 313 157.56, 313 235 M313 0 C313 54.64, 313 109.27, 313 235 M313 235 C234.73 235, 156.45 235, 0 235 M313 235 C209.55 235, 106.1 235, 0 235 M0 235 C0 176.95, 0 118.9, 0 0 M0 235 C0 186.78, 0 138.57, 0 0" stroke="#000000" stroke-width="2" fill="none"></path></g><g transform="translate(354.5833333333328 326.6666666666673) rotate(0 151.5 112.5)"><text x="0" y="32" font-family="Virgil, Segoe UI Emoji" font-size="36px" fill="#000000" text-anchor="start" style="white-space: pre;" direction="ltr">arzt</text><text x="0" y="77" font-family="Virgil, Segoe UI Emoji" font-size="36px" fill="#000000" text-anchor="start" style="white-space: pre;" direction="ltr">id           (PK)</text><text x="0" y="122" font-family="Virgil, Segoe UI Emoji" font-size="36px" fill="#000000" text-anchor="start" style="white-space: pre;" direction="ltr">vorname</text><text x="0" y="167" font-family="Virgil, Segoe UI Emoji" font-size="36px" fill="#000000" text-anchor="start" style="white-space: pre;" direction="ltr">nachname</text><text x="0" y="212" font-family="Virgil, Segoe UI Emoji" font-size="36px" fill="#000000" text-anchor="start" style="white-space: pre;" direction="ltr">abteilung_id (FK)</text></g><g stroke-linecap="round"><g transform="translate(352.75 368.9681861514142) rotate(0 153.33333333333337 -1.666666666666572)"><path d="M0 0 C51.11 -0.56, 255.56 -2.78, 306.67 -3.33 M0 0 C51.11 -0.56, 255.56 -2.78, 306.67 -3.33" stroke="#000000" stroke-width="2" fill="none"></path></g></g><g stroke-linecap="round" transform="translate(1243.75 100.00000000000051) rotate(0 184.5 140)"><path d="M0 0 C124.1 0, 248.2 0, 369 0 M0 0 C122.42 0, 244.83 0, 369 0 M369 0 C369 78.22, 369 156.45, 369 280 M369 0 C369 61.44, 369 122.88, 369 280 M369 280 C271.12 280, 173.23 280, 0 280 M369 280 C265.24 280, 161.48 280, 0 280 M0 280 C0 207.95, 0 135.9, 0 0 M0 280 C0 216.01, 0 152.02, 0 0" stroke="#000000" stroke-width="2" fill="none"></path></g><g transform="translate(1248.75 105.00000000000051) rotate(0 177 135)"><text x="0" y="32" font-family="Virgil, Segoe UI Emoji" font-size="36px" fill="#000000" text-anchor="start" style="white-space: pre;" direction="ltr">aufenthalt</text><text x="0" y="77" font-family="Virgil, Segoe UI Emoji" font-size="36px" fill="#000000" text-anchor="start" style="white-space: pre;" direction="ltr">id              (PK)</text><text x="0" y="122" font-family="Virgil, Segoe UI Emoji" font-size="36px" fill="#000000" text-anchor="start" style="white-space: pre;" direction="ltr">datum_aufnahme</text><text x="0" y="167" font-family="Virgil, Segoe UI Emoji" font-size="36px" fill="#000000" text-anchor="start" style="white-space: pre;" direction="ltr">datum_entlassung</text><text x="0" y="212" font-family="Virgil, Segoe UI Emoji" font-size="36px" fill="#000000" text-anchor="start" style="white-space: pre;" direction="ltr">zimmer_id      (FK)</text><text x="0" y="257" font-family="Virgil, Segoe UI Emoji" font-size="36px" fill="#000000" text-anchor="start" style="white-space: pre;" direction="ltr">patient_id     (FK)</text></g><g stroke-linecap="round"><g transform="translate(1242.7499999999998 143.96818615141416) rotate(0 182.4999999999999 -2.499999999999943)"><path d="M0 0 C60.83 -0.83, 304.17 -4.17, 365 -5 M0 0 C60.83 -0.83, 304.17 -4.17, 365 -5" stroke="#000000" stroke-width="2" fill="none"></path></g></g><g stroke-linecap="round" transform="translate(1352.916666666665 524.5833333333335) rotate(0 129.5 117.5)"><path d="M0 0 C67.87 0, 135.74 0, 259 0 M0 0 C72.65 0, 145.3 0, 259 0 M259 0 C259 56.26, 259 112.51, 259 235 M259 0 C259 78.4, 259 156.8, 259 235 M259 235 C187.74 235, 116.49 235, 0 235 M259 235 C176.45 235, 93.91 235, 0 235 M0 235 C0 153.23, 0 71.45, 0 0 M0 235 C0 167.39, 0 99.78, 0 0" stroke="#000000" stroke-width="2" fill="none"></path></g><g transform="translate(1357.916666666665 529.5833333333335) rotate(0 123 112.5)"><text x="0" y="32" font-family="Virgil, Segoe UI Emoji" font-size="36px" fill="#000000" text-anchor="start" style="white-space: pre;" direction="ltr">patient</text><text x="0" y="77" font-family="Virgil, Segoe UI Emoji" font-size="36px" fill="#000000" text-anchor="start" style="white-space: pre;" direction="ltr">id        (PK)</text><text x="0" y="122" font-family="Virgil, Segoe UI Emoji" font-size="36px" fill="#000000" text-anchor="start" style="white-space: pre;" direction="ltr">krankenkasse</text><text x="0" y="167" font-family="Virgil, Segoe UI Emoji" font-size="36px" fill="#000000" text-anchor="start" style="white-space: pre;" direction="ltr">vorname</text><text x="0" y="212" font-family="Virgil, Segoe UI Emoji" font-size="36px" fill="#000000" text-anchor="start" style="white-space: pre;" direction="ltr">nachname</text></g><g stroke-linecap="round"><g transform="translate(1353.5833333333328 566.8848528180806) rotate(0 127.5 1.1368683772161603e-13)"><path d="M0 0 C42.5 0, 212.5 0, 255 0 M0 0 C42.5 0, 212.5 0, 255 0" stroke="#000000" stroke-width="2" fill="none"></path></g></g><g stroke-linecap="round" transform="translate(737.0833333333323 269.99999999999983) rotate(0 211 117.5)"><path d="M0 0 C152.32 0, 304.64 0, 422 0 M0 0 C96.74 0, 193.47 0, 422 0 M422 0 C422 80.86, 422 161.72, 422 235 M422 0 C422 91.74, 422 183.49, 422 235 M422 235 C335.15 235, 248.3 235, 0 235 M422 235 C311.02 235, 200.05 235, 0 235 M0 235 C0 185.81, 0 136.61, 0 0 M0 235 C0 145.96, 0 56.91, 0 0" stroke="#000000" stroke-width="2" fill="none"></path></g><g transform="translate(742.0833333333323 274.99999999999983) rotate(0 205 90)"><text x="0" y="31" font-family="Virgil, Segoe UI Emoji" font-size="36px" fill="#000000" text-anchor="start" style="white-space: pre;" direction="ltr">behandlung_arzt</text><text x="0" y="76" font-family="Virgil, Segoe UI Emoji" font-size="36px" fill="#000000" text-anchor="start" style="white-space: pre;" direction="ltr">id                 (PK)</text><text x="0" y="121" font-family="Virgil, Segoe UI Emoji" font-size="36px" fill="#000000" text-anchor="start" style="white-space: pre;" direction="ltr">arzt_id           (FK)</text><text x="0" y="166" font-family="Virgil, Segoe UI Emoji" font-size="36px" fill="#000000" text-anchor="start" style="white-space: pre;" direction="ltr">aufenthalt_id     (FK)</text></g><g stroke-linecap="round"><g transform="translate(737.7499999999998 317.30151948474696) rotate(0 212.5000000000001 -0.8333333333332575)"><path d="M0 0 C28.89 -0.14, 102.5 -0.56, 173.33 -0.83 C244.17 -1.11, 383.06 -1.53, 425 -1.67 M0 0 C28.89 -0.14, 102.5 -0.56, 173.33 -0.83 C244.17 -1.11, 383.06 -1.53, 425 -1.67" stroke="#000000" stroke-width="2" fill="none"></path></g></g><g stroke-linecap="round" transform="translate(737.0833333333326 10) rotate(0 211 95)"><path d="M0 0 C94.31 0, 188.62 0, 422 0 M0 0 C168.17 0, 336.35 0, 422 0 M422 0 C422 62.89, 422 125.78, 422 190 M422 0 C422 55.11, 422 110.22, 422 190 M422 190 C300.72 190, 179.44 190, 0 190 M422 190 C308.98 190, 195.95 190, 0 190 M0 190 C0 136.56, 0 83.12, 0 0 M0 190 C0 141.14, 0 92.28, 0 0" stroke="#000000" stroke-width="2" fill="none"></path></g><g transform="translate(742.0833333333326 15) rotate(0 205 90)"><text x="0" y="31" font-family="Virgil, Segoe UI Emoji" font-size="36px" fill="#000000" text-anchor="start" style="white-space: pre;" direction="ltr">behandlung_pflegekraft</text><text x="0" y="76" font-family="Virgil, Segoe UI Emoji" font-size="36px" fill="#000000" text-anchor="start" style="white-space: pre;" direction="ltr">id                 (PK)</text><text x="0" y="121" font-family="Virgil, Segoe UI Emoji" font-size="36px" fill="#000000" text-anchor="start" style="white-space: pre;" direction="ltr">pflegekraft_id    (FK)</text><text x="0" y="166" font-family="Virgil, Segoe UI Emoji" font-size="36px" fill="#000000" text-anchor="start" style="white-space: pre;" direction="ltr">aufenthalt_id     (FK)</text></g><g stroke-linecap="round"><g transform="translate(737.75 58.96818615141376) rotate(0 212.5000000000001 -0.8333333333332575)"><path d="M0 0 C28.89 -0.14, 102.5 -0.56, 173.33 -0.83 C244.17 -1.11, 383.06 -1.53, 425 -1.67 M0 0 C28.89 -0.14, 102.5 -0.56, 173.33 -0.83 C244.17 -1.11, 383.06 -1.53, 425 -1.67" stroke="#000000" stroke-width="2" fill="none"></path></g></g><g stroke-linecap="round"><g transform="translate(661.9166666666663 133.1348528180808) rotate(0 36.66666666666663 0)"><path d="M0 0 C12.22 0, 61.11 0, 73.33 0 M0 0 C12.22 0, 61.11 0, 73.33 0" stroke="#000000" stroke-width="2" fill="none"></path></g></g><g stroke-linecap="round"><g transform="translate(661.9166666666663 393.13485281808073) rotate(0 36.66666666666663 0)"><path d="M0 0 C12.22 0, 61.11 0, 73.33 0 M0 0 C12.22 0, 61.11 0, 73.33 0" stroke="#000000" stroke-width="2" fill="none"></path></g></g><g stroke-linecap="round"><g transform="translate(1161.9166666666663 169.80151948474747) rotate(0 40 0)"><path d="M0 0 C22.66 0, 45.32 0, 80 0 M0 0 C17.73 0, 35.47 0, 80 0" stroke="#000000" stroke-width="2" fill="none"></path></g></g><g stroke-linecap="round"><g transform="translate(1160.1904761904757 432.7182115827291) rotate(0 41.25 -126.25)"><path d="M0 0 C0 0, 0 0, 0 0 M0 0 C0 0, 0 0, 0 0 M0 0 C10.3 0, 20.6 0, 28.75 0 M0 0 C8.44 0, 16.88 0, 28.75 0 M28.75 0 C29.14 -78.29, 29.53 -156.57, 30 -252.5 M28.75 0 C29.02 -54.36, 29.29 -108.72, 30 -252.5 M30 -252.5 C47.47 -252.5, 64.94 -252.5, 82.5 -252.5 M30 -252.5 C46.99 -252.5, 63.98 -252.5, 82.5 -252.5" stroke="#000000" stroke-width="2" fill="none"></path></g></g><g stroke-linecap="round"><g transform="translate(1243.9404761904757 313.1348528180807) rotate(0 -288.125 166.24999999999997)"><path d="M0 0 C0 0, 0 0, 0 0 M0 0 C0 0, 0 0, 0 0 M0 0 C-5.65 0, -11.3 0, -17.5 0 M0 0 C-6.79 0, -13.57 0, -17.5 0 M-17.5 0 C-17.5 107.91, -17.5 215.82, -17.5 332.5 M-17.5 0 C-17.5 99.89, -17.5 199.77, -17.5 332.5 M-17.5 332.5 C-186.23 332.5, -354.96 332.5, -576.25 332.5 M-17.5 332.5 C-221.33 332.5, -425.15 332.5, -576.25 332.5" stroke="#000000" stroke-width="2" fill="none"></path></g></g><g stroke-linecap="round"><g transform="translate(1612.6904761904757 355.218211582729) rotate(0 8.75 121.25000000000003)"><path d="M0 0 C0 0, 0 0, 0 0 M0 0 C0 0, 0 0, 0 0 M0 0 C5.52 0, 11.04 0, 20 0 M0 0 C5.7 0, 11.4 0, 20 0 M20 0 C20 80, 20 159.99, 20 242.5 M20 0 C20 87.75, 20 175.51, 20 242.5 M20 242.5 C12.09 242.5, 4.19 242.5, -2.5 242.5 M20 242.5 C14.84 242.5, 9.68 242.5, -2.5 242.5" stroke="#000000" stroke-width="2" fill="none"></path></g></g><g stroke-linecap="round"><g transform="translate(269.31800511442873 270.31720001314784) rotate(0 40.90978202316575 130.88249949395632)"><path d="M0 0 C9.78 -0.03, 19.55 -0.06, 32.12 -0.1 M0 0 C8.59 -0.03, 17.17 -0.05, 32.12 -0.1 M32.12 -0.1 C32.85 60.45, 33.57 121.01, 35.25 261.86 M32.12 -0.1 C32.86 61.62, 33.6 123.33, 35.25 261.86 M35.25 261.86 C44.67 261.72, 54.09 261.57, 81.82 261.13 M35.25 261.86 C53.84 261.57, 72.43 261.28, 81.82 261.13" stroke="#000000" stroke-width="2" fill="none"></path></g></g><g stroke-linecap="round"><g transform="translate(269.9924993296381 283.0059644751243) rotate(0 38.848988430418785 228.29360794589294)"><path d="M0 0 C4.5 -0.06, 9.01 -0.13, 20.2 -0.29 M0 0 C4.95 -0.07, 9.89 -0.14, 20.2 -0.29 M20.2 -0.29 C21.27 156.19, 22.35 312.67, 23.33 455.31 M20.2 -0.29 C21.21 147, 22.22 294.29, 23.33 455.31 M23.33 455.31 C44.76 455.93, 66.19 456.54, 77.7 456.87 M23.33 455.31 C39.47 455.77, 55.61 456.24, 77.7 456.87" stroke="#000000" stroke-width="2" fill="none"></path></g></g><g stroke-linecap="round"><g transform="translate(271.212830088485 259.25686112513876) rotate(0 38.36016000226056 0)"><path d="M0 0 C27.09 0, 54.17 0, 76.72 0 M0 0 C28.1 0, 56.21 0, 76.72 0" stroke="#000000" stroke-width="2" fill="none"></path></g></g></svg>